<svg width="150" height="151" viewBox="0 0 150 151" fill="none" xmlns="http://www.w3.org/2000/svg">
<path d="M65.8125 68.0068C65.1875 66.0693 64.625 64.1943 64 62.2568C63.375 60.3193 62.8125 58.5068 62.3125 56.6943C61.8125 54.9443 61.375 53.3193 60.9375 51.8193H60.8125C60.25 54.5068 59.5625 57.1943 58.6875 59.8818C57.75 62.8818 56.8125 66.0068 55.8125 69.1318C54.9375 72.3193 54 75.2569 53.0625 77.8819H68.9375C68.5625 76.5631 68.0625 75.0068 67.5 73.3756C66.9375 71.6943 66.375 69.8818 65.8125 68.0068ZM123.438 2.81934H26.5625C11.875 2.81934 0 14.6943 0 29.3818V122.507C0 137.194 11.875 149.069 26.5625 149.069H123.438C138.125 149.069 150 137.194 150 122.507V29.3818C150 14.6943 138.125 2.81934 123.438 2.81934ZM91.875 106.132H78.8063C78.375 106.194 77.9375 105.882 77.8125 105.444L72.6875 90.5694H49.4375L44.6875 105.257C44.5625 105.819 44.0625 106.194 43.5 106.138H31.75C31.0625 106.138 30.875 105.757 31.0625 105.013L51.1875 47.0693C51.375 46.4443 51.5625 45.7568 51.8125 45.0068C52.0625 43.6943 52.1875 42.3193 52.1875 40.9443C52.125 40.6318 52.375 40.3193 52.6875 40.2568H68.875C69.375 40.2568 69.625 40.4443 69.6875 40.7568L92.5 105.132C92.6875 105.813 92.5 106.132 91.875 106.132ZM113.125 105.194C113.125 105.882 112.881 106.194 112.319 106.194H100.062C99.4375 106.194 99.125 105.813 99.125 105.194V57.0693C99.125 56.4443 99.3812 56.1943 99.9437 56.1943H112.319C112.881 56.1943 113.125 56.5068 113.125 57.0693V105.194ZM111.819 48.7568C111.081 49.5065 110.191 50.0895 109.209 50.4668C108.227 50.8441 107.175 51.0069 106.125 50.9443C104.062 51.0068 102.062 50.1943 100.556 48.7568C99.1243 47.1912 98.3616 45.1274 98.4312 43.0068C98.3687 40.8818 99.1812 38.8818 100.675 37.4443C102.187 36.0068 104.188 35.2568 106.25 35.2568C108.694 35.2568 110.556 36.0068 111.938 37.4443C113.312 38.9443 114.062 40.9443 114 43.0068C114.062 45.1318 113.313 47.1943 111.819 48.7568Z" fill="white" fill-opacity="0.5"/>
</svg>
