<svg width="150" height="150" viewBox="0 0 150 150" fill="none" xmlns="http://www.w3.org/2000/svg">
<path d="M19.3984 141.215C16.8574 141.215 16.1187 139.736 16.1187 137.52C16.1187 136.782 16.2114 135.949 16.3257 135.072C16.8823 131.24 18.2412 129.048 21.521 129.048C23.7393 129.048 24.8208 130.039 24.8208 131.84V132.718H27.0215C27.0459 132.718 27.0459 131.91 27.0459 131.726C27.0459 129.095 25.4517 126.599 21.5244 126.599C16.188 126.599 13.9937 129.496 13.1851 135.176C13.0693 135.939 13 136.65 13 137.41C13 140.758 14.3179 143.803 19.0298 143.803C22.6099 143.803 24.7363 142.058 25.9829 139.911L23.8804 138.496C22.5181 140.643 21.0386 141.215 19.3984 141.215ZM33.8369 130.64C29.5625 130.64 27.7158 132.832 27.0923 137.195C27.0191 137.7 26.9799 138.21 26.9751 138.72C26.9751 141.536 28.292 143.777 31.9409 143.777C36.2153 143.777 38.0869 141.491 38.7104 137.195C38.7798 136.642 38.8262 136.134 38.8262 135.626C38.8271 132.764 37.4648 130.64 33.8369 130.64ZM35.6157 137.197C35.1533 140.361 34.1611 141.331 32.2886 141.331C30.7881 141.331 30.0493 140.707 30.0493 138.837C30.0493 138.375 30.0962 137.821 30.188 137.197C30.6504 134.057 31.5742 133.088 33.4683 133.088C34.9932 133.088 35.7544 133.711 35.7544 135.604C35.7544 136.066 35.7075 136.597 35.6157 137.197ZM49.5708 126.828L48.8555 131.067C48.8096 131.435 48.833 131.313 48.9727 131.659C48.3027 131.152 47.1006 130.816 46.292 130.816C42.457 130.816 40.3096 132.551 39.6172 137.399C39.5363 137.911 39.4976 138.429 39.5015 138.947C39.5015 142.481 41.5801 143.798 44.3745 143.798C45.5542 143.798 46.7085 143.822 47.6084 143.062L47.8384 144.498H50.0566L52.6436 126.828H49.5708ZM47.3765 140.66C46.3379 141.282 45.3223 141.422 44.6987 141.422C43.0122 141.422 42.5503 140.544 42.5503 139.137C42.5503 138.605 42.6196 137.984 42.7129 137.312C43.2432 133.642 44.4219 132.994 45.9468 132.994C46.939 132.994 47.7007 133.156 48.4185 133.55L47.3765 140.66ZM59.3896 130.64C55.1611 130.64 53.1763 132.647 52.5054 137.195C52.4351 137.75 52.3887 138.282 52.3887 138.789C52.3887 141.906 53.9834 143.777 57.4932 143.777C60.2192 143.777 62.2539 142.645 63.3389 140.567L61.0054 139.62C60.3364 140.635 59.4355 141.328 57.8413 141.328C56.1323 141.328 55.439 140.868 55.439 139.344C55.439 139.044 55.4624 138.607 55.5088 138.607H63.8467C63.9639 137.429 64.1006 136.596 64.1006 135.906C64.1006 133.598 63.2236 130.64 59.3896 130.64V130.64ZM60.9829 136.252H55.9009C56.4102 135.074 57.2632 133.251 59.0195 133.251C60.3818 133.251 61.0527 134.047 61.0527 135.409C61.0513 135.64 61.0303 136.252 60.9829 136.252ZM72.9902 130.362L73.2671 128.006H66.752L66.4761 130.362H68.1851L66.3384 142.142H64.627L64.3516 144.498H70.8652L71.1436 142.142H69.4331L71.2803 130.362H72.9902ZM86.2275 133.896L87.0601 131.54H84.8193L83.2036 131.873C82.3022 131.298 81.0776 130.865 79.9238 130.865C76.6191 130.865 73.8022 132.46 73.8022 136.086C73.8022 137.103 74.1714 137.924 74.6094 138.479C73.918 138.847 73.3169 139.464 73.3169 140.297C73.3169 140.666 73.4546 141.044 73.7329 141.389C72.3457 142.222 71.4937 143.601 71.4937 145.216C71.4937 148.335 74.75 149 77.2446 149C80.3857 149 84.1289 148.283 84.1289 144.288C84.1289 142.926 83.2744 141.863 80.8027 141.401L76.3447 140.568C75.8369 140.475 75.7212 140.313 75.7212 140.083C75.7212 139.736 75.9312 139.553 76.2759 139.553L76.5767 139.599C77.1772 139.737 77.8706 139.807 78.5859 139.807C81.7979 139.807 84.6616 138.421 84.6616 134.819C84.6616 134.311 84.5698 133.967 84.3389 133.412C84.731 133.597 85.2402 133.897 85.4463 133.897H86.2275V133.896ZM79.8765 143.453C80.7534 143.616 81.0532 143.938 81.0532 144.515C81.0532 146.386 79.0435 146.617 77.5889 146.617C75.3711 146.617 74.54 146.087 74.54 144.908C74.54 143.868 74.8394 143.385 75.5337 142.645L79.8765 143.453ZM78.9277 137.405C77.5879 137.405 76.8486 136.921 76.8486 135.766C76.8486 134.057 77.8423 133.064 79.5747 133.064C80.9609 133.064 81.6313 133.642 81.6313 134.771C81.6313 136.48 80.6602 137.405 78.9277 137.405ZM94.4341 130.64C93.1401 130.64 91.9863 131.275 90.5532 132.405L90.3457 131.54H87.8037L86.0254 144.497H89.0977L90.438 134.671C91.3394 134.117 92.4473 133.313 93.3945 133.313C94.5488 133.313 94.9658 133.87 94.9658 134.931C94.9658 135.186 94.9414 135.939 94.895 136.215L93.7646 144.497H96.8374L97.9678 136.148C98.0146 135.758 98.0605 135.114 98.0605 134.746C98.062 132.549 97.021 130.64 94.4341 130.64ZM103.897 141.251L103.92 140.934L105.259 131.54H100.154L99.832 133.896H102.071C101.886 133.896 101.771 134.102 101.749 134.288L100.824 140.545C100.778 140.846 100.756 141.473 100.756 141.725C100.756 143.341 101.633 144.498 103.434 144.498H105.005L105.352 142.142H104.359C104.011 142.142 103.897 141.528 103.897 141.251ZM105.883 126.828H102.88C102.695 126.828 102.695 126.148 102.672 126.379L102.255 129.699C102.231 129.908 102.231 130.363 102.417 130.363H105.421C105.606 130.363 105.606 129.555 105.628 129.345L106.045 126.783C106.069 126.552 106.069 126.828 105.883 126.828ZM112.148 141.33C111.387 141.33 111.017 141.007 111.017 140.315L111.04 140.268L112.01 133.896H115.521L116.583 131.54H112.333L113.048 126.356L109.816 127.389L109.237 131.54H107.367L107.044 133.896H109.215C109.007 135.074 108.799 134.31 108.776 134.542L107.944 140.129C107.898 140.383 107.898 140.568 107.898 140.798C107.898 142.991 109.515 143.812 111.458 143.812C113.258 143.812 114.714 143.287 115.847 142.338L114.414 140.577C113.696 141.014 113.211 141.33 112.148 141.33ZM123.421 130.64C119.194 130.64 117.208 132.647 116.537 137.195C116.468 137.75 116.421 138.282 116.421 138.789C116.421 141.906 118.015 143.777 121.526 143.777C124.252 143.777 126.287 142.645 127.371 140.567L125.038 139.62C124.369 140.635 123.467 141.328 121.873 141.328C120.165 141.328 119.47 140.868 119.47 139.344C119.47 139.044 119.495 138.607 119.542 138.607H127.88C127.995 137.429 128.134 136.596 128.134 135.906C128.134 133.598 127.256 130.64 123.421 130.64V130.64ZM125.016 136.252H119.934C120.441 135.074 121.295 133.251 123.052 133.251C124.415 133.251 125.085 134.047 125.085 135.409C125.084 135.64 125.062 136.252 125.016 136.252ZM136.635 130.64C135.526 130.64 134.487 131.275 133.447 132.266L133.262 131.54H130.722L128.943 144.497H132.039L133.401 134.463C134.21 133.98 135.134 133.566 136.012 133.566C136.567 133.566 137.097 133.478 137.605 133.547L138 130.87C137.536 130.778 137.074 130.64 136.635 130.64V130.64ZM58.1855 117.547C51.1934 114.526 44.6504 106.849 44.6348 98.9927C44.6157 90.4277 50.0464 83.156 56.8008 78.3772C55.9888 81.4435 55.5459 84.2482 57.5576 86.991C59.4277 89.541 62.7031 90.7801 65.7959 90.1076C73.0225 88.5263 73.354 80.586 69.0698 75.96C64.834 71.3788 60.7363 66.2042 62.3486 59.5606C63.1558 56.2302 65.2017 53.1107 67.7935 50.8809C65.8013 56.1136 71.4624 61.2741 75.1924 63.8445C81.6626 68.3042 88.7617 71.6745 94.7109 76.9024C100.969 82.3966 105.59 89.8255 104.657 98.4417C103.646 107.781 96.2207 114.276 87.8926 117.555C105.491 113.673 123.675 100.021 124.048 80.5133C124.356 64.4643 113.341 52.1132 99.6963 45.0421L98.9834 44.6531C99.3579 45.5613 99.4805 46.3339 99.4663 47.0254C99.5884 46.5154 99.6714 45.9913 99.6948 45.4506C99.6915 46.093 99.6075 46.7324 99.4448 47.3539L99.4663 47.0254C99.2637 47.8775 98.9224 48.6905 98.4561 49.4319L98.6562 49.2167C95.9341 53.7296 88.5645 54.7095 84.9238 50.0366C79.0713 42.5199 85.0464 34.4156 85.8823 26.4558C86.9287 16.4799 80.6694 6.7954 72.9087 1C77.1831 7.91104 71.5518 17.0543 67.0464 22.166C62.6777 27.121 57.3647 31.2581 52.542 35.7602C47.3613 40.5956 42.3809 45.6892 38.1226 51.3645C29.606 62.724 24.3921 77.0107 28.2236 91.1822C32.0527 105.344 44.3262 114.359 58.186 117.547L58.1855 117.547Z" fill="white" fill-opacity="0.5"/>
</svg>
