<svg width="60" height="60" viewBox="0 0 60 60" fill="none" xmlns="http://www.w3.org/2000/svg">
<circle cx="30" cy="30" r="30" fill="#434343"/>
<path d="M33.2433 30L42.3214 20.9219C42.7522 20.4918 42.9946 19.9082 42.9951 19.2994C42.9956 18.6907 42.7543 18.1066 42.3242 17.6758C41.8942 17.2449 41.3105 17.0026 40.7018 17.002C40.093 17.0015 39.5089 17.2428 39.0781 17.6729L30 26.751L20.9219 17.6729C20.4911 17.242 19.9067 17 19.2974 17C18.6881 17 18.1037 17.242 17.6729 17.6729C17.242 18.1037 17 18.6881 17 19.2974C17 19.9067 17.242 20.4911 17.6729 20.9219L26.751 30L17.6729 39.0781C17.242 39.5089 17 40.0933 17 40.7026C17 41.3119 17.242 41.8963 17.6729 42.3271C18.1037 42.758 18.6881 43 19.2974 43C19.9067 43 20.4911 42.758 20.9219 42.3271L30 33.249L39.0781 42.3271C39.5089 42.758 40.0933 43 40.7026 43C41.3119 43 41.8963 42.758 42.3271 42.3271C42.758 41.8963 43 41.3119 43 40.7026C43 40.0933 42.758 39.5089 42.3271 39.0781L33.2433 30Z" fill="#F36666"/>
</svg>
