<svg width="150" height="151" viewBox="0 0 150 151" fill="none" xmlns="http://www.w3.org/2000/svg">
<path fill-rule="evenodd" clip-rule="evenodd" d="M52.5941 0.819336C37.3004 0.819336 25.0004 13.6506 25.0004 29.3693C25.0004 38.9256 29.5504 47.4131 36.5441 52.5943C32.9396 55.2949 30.018 58.8023 28.0133 62.8355C26.0086 66.8687 24.9768 71.3155 25.0004 75.8193C25.0004 85.3818 29.5504 93.8631 36.5441 99.0443C32.9396 101.745 30.018 105.252 28.0133 109.286C26.0086 113.319 24.9768 117.765 25.0004 122.269C25.0004 137.988 37.3004 150.819 52.5941 150.819C67.8816 150.819 80.1879 137.988 80.1879 122.269V98.1318C85.0212 102.162 91.1137 104.371 97.4067 104.376C112.7 104.369 125 91.5381 125 75.8193C125 66.2568 120.457 57.7756 113.457 52.5943C117.061 49.8938 119.983 46.3864 121.988 42.3532C123.992 38.32 125.024 33.8732 125 29.3693C125 13.6506 112.7 0.819336 97.4067 0.819336H52.5941ZM35.3691 29.3693C35.3691 19.4256 43.1316 11.4631 52.5941 11.4631H69.8129V47.2756H52.5941C43.1316 47.2756 35.3691 39.3068 35.3691 29.3693ZM97.4067 47.2693H80.1879V11.4568H97.4067C106.875 11.4568 114.632 19.4256 114.632 29.3693C114.632 39.3068 106.875 47.2693 97.4067 47.2693ZM35.3754 75.8193C35.3754 65.8818 43.1379 57.9131 52.6004 57.9131H69.8191V93.7256H52.5941C43.1254 93.7256 35.3691 85.7568 35.3691 75.8193H35.3754ZM80.1879 75.8193C80.1879 65.8818 87.9504 57.9131 97.4129 57.9131C106.882 57.9131 114.638 65.8756 114.638 75.8193C114.638 85.7568 106.882 93.7256 97.4129 93.7256C87.9504 93.7256 80.1942 85.7631 80.1942 75.8193H80.1879ZM35.3754 122.269C35.3754 112.332 43.1379 104.369 52.6004 104.369H69.8191V122.269C69.8191 132.213 62.0692 140.176 52.6004 140.176C43.1379 140.176 35.3754 132.213 35.3754 122.269Z" fill="white" fill-opacity="0.5"/>
</svg>
