<svg width="150" height="150" viewBox="0 0 150 150" fill="none" xmlns="http://www.w3.org/2000/svg">
<path d="M9 0L20.8741 134.603L74.991 150L128.892 134.603L141 0H9ZM116.046 31.9291L115.183 40.4387L114.877 43.9543H51.6567L53.1319 60.9375H113.42L112.826 65.3185L109.012 108.984L108.706 111.905L75.063 121.208V121.262H74.8471L74.7931 121.28V121.262H74.7751L40.8441 111.887L38.7931 85.8173H55.1829L56.3523 99.0144L74.7751 104.008H74.8471L93.1979 99.0324L95.2489 77.6502H74.7931V77.6322H37.9295L33.8276 31.9291L33.5217 27.5481H116.334L116.046 31.9291Z" fill="white" fill-opacity="0.5"/>
</svg>
