<svg width="37" height="36" viewBox="0 0 37 36" fill="none" xmlns="http://www.w3.org/2000/svg">
<path d="M18.6003 0.720001C9.05671 0.720001 1.32031 8.4564 1.32031 18C1.32031 27.5436 9.05671 35.28 18.6003 35.28C28.1439 35.28 35.8803 27.5436 35.8803 18C35.8803 8.4564 28.1439 0.720001 18.6003 0.720001ZM14.3703 25.1622H10.8711V13.9014H14.3703V25.1622ZM12.5991 12.519C11.4939 12.519 10.7793 11.736 10.7793 10.7676C10.7793 9.7794 11.5155 9.0198 12.6441 9.0198C13.7727 9.0198 14.4639 9.7794 14.4855 10.7676C14.4855 11.736 13.7727 12.519 12.5991 12.519ZM27.1503 25.1622H23.6511V18.9216C23.6511 17.469 23.1435 16.4826 21.8781 16.4826C20.9115 16.4826 20.3373 17.1504 20.0835 17.793C19.9899 18.0216 19.9665 18.3456 19.9665 18.6678V25.1604H16.4655V17.4924C16.4655 16.0866 16.4205 14.9112 16.3737 13.8996H19.4139L19.5741 15.4638H19.6443C20.1051 14.7294 21.2337 13.6458 23.1219 13.6458C25.4241 13.6458 27.1503 15.1884 27.1503 18.504V25.1622Z" fill="white"/>
</svg>
