<svg width="18" height="22" viewBox="0 0 18 22" fill="none" xmlns="http://www.w3.org/2000/svg">
<path fill-rule="evenodd" clip-rule="evenodd" d="M9 7C7.89543 7 7 7.89543 7 9C7 10.1046 7.89543 11 9 11C10.1046 11 11 10.1046 11 9C11 7.89543 10.1046 7 9 7ZM5 9C5 6.79086 6.79086 5 9 5C11.2091 5 13 6.79086 13 9C13 11.2091 11.2091 13 9 13C6.79086 13 5 11.2091 5 9Z" fill="white"/>
<path fill-rule="evenodd" clip-rule="evenodd" d="M2.63604 2.63604C4.32387 0.948212 6.61305 0 9 0C11.3869 0 13.6761 0.948212 15.364 2.63604C17.0518 4.32387 18 6.61305 18 9C18 10.0166 17.8921 10.9121 17.611 11.7604C17.3283 12.6131 16.8871 13.3683 16.2803 14.1254C16.2723 14.1354 16.2641 14.1452 16.2557 14.1549L9.75569 21.6549C9.56575 21.8741 9.29002 22 9 22C8.70998 22 8.43425 21.8741 8.24431 21.6549L1.74431 14.1549C1.73591 14.1452 1.72771 14.1354 1.71969 14.1254C1.11294 13.3683 0.671692 12.6131 0.389039 11.7604C0.107863 10.9121 0 10.0166 0 9C0 6.61305 0.948212 4.32387 2.63604 2.63604ZM9 2C7.14348 2 5.36301 2.7375 4.05025 4.05025C2.7375 5.36301 2 7.14348 2 9C2 9.87539 2.09314 10.5449 2.28746 11.1311C2.47877 11.7083 2.78415 12.2529 3.26862 12.86L9 19.4731L14.7314 12.86C15.2158 12.2529 15.5212 11.7083 15.7125 11.1311C15.9069 10.5449 16 9.87539 16 9C16 7.14348 15.2625 5.36301 13.9497 4.05025C12.637 2.7375 10.8565 2 9 2Z" fill="white"/>
</svg>
