<svg width="150" height="150" viewBox="0 0 150 150" fill="none" xmlns="http://www.w3.org/2000/svg">
<path fill-rule="evenodd" clip-rule="evenodd" d="M137.861 98.4951C137.7 98.5273 137.538 98.8824 137.538 99.0759C137.506 100.368 137.474 103.79 137.474 106.114C137.474 106.179 137.57 106.308 137.667 106.308C138.151 106.34 139.314 106.372 140.315 106.372C141.703 106.372 142.51 106.179 142.962 105.985C144.124 105.404 144.673 104.145 144.673 102.756C144.673 99.6251 142.478 98.4304 139.217 98.4304C138.991 98.3982 138.346 98.3982 137.861 98.4951ZM146.191 112.927C146.191 109.73 143.834 107.954 139.572 107.954C139.378 107.954 138.022 107.922 137.699 107.987C137.602 108.019 137.474 108.084 137.474 108.181C137.474 110.473 137.441 114.121 137.538 115.542C137.602 116.155 138.055 117.027 138.604 117.285C139.184 117.608 140.508 117.672 141.412 117.672C143.963 117.672 146.191 116.252 146.191 112.927ZM131.275 96.7196C131.598 96.7196 132.566 96.8161 135.052 96.8161C137.409 96.8161 139.281 96.7518 141.574 96.7518C144.382 96.7518 148.257 97.7524 148.257 101.95C148.257 104.016 146.804 105.663 144.899 106.47C144.802 106.502 144.802 106.566 144.899 106.598C147.611 107.277 150 108.955 150 112.119C150 115.219 148.063 117.188 145.254 118.415C143.543 119.158 141.412 119.416 139.249 119.416C137.602 119.416 133.18 119.222 130.726 119.287C130.468 119.19 130.952 118.027 131.178 117.834C131.759 117.801 132.211 117.769 132.824 117.575C133.696 117.35 133.793 117.091 133.922 115.768C133.987 114.638 133.987 110.634 133.987 107.793C133.987 103.887 134.019 101.239 133.987 99.948C133.955 98.9475 133.599 98.6242 132.889 98.4304C132.34 98.3338 131.436 98.2044 130.694 98.1078C130.532 97.9462 131.081 96.8483 131.275 96.7196ZM112.646 116.801C113.421 117.414 114.938 117.672 116.295 117.672C118.038 117.672 119.781 117.35 121.46 115.832C123.171 114.283 124.366 111.893 124.366 108.084C124.366 104.435 122.977 101.465 120.136 99.722C118.522 98.7208 116.456 98.3016 114.067 98.3016C113.356 98.3016 112.678 98.3338 112.259 98.5273C112.162 98.592 111.936 98.8824 111.936 99.0437C111.871 99.6895 111.871 104.661 111.871 107.567C111.871 110.57 111.871 114.767 111.936 115.251C111.936 115.736 112.162 116.478 112.646 116.801H112.646ZM105.317 96.7192C105.931 96.7192 108.287 96.8161 109.417 96.8161C111.452 96.8161 112.904 96.7196 116.746 96.7196C119.975 96.7196 122.687 97.5911 124.624 99.2375C126.98 101.272 128.208 104.081 128.208 107.502C128.208 112.378 125.98 115.187 123.752 116.801C121.525 118.447 118.619 119.416 114.486 119.416C112.291 119.416 108.514 119.351 105.382 119.319H105.35C105.188 119.028 105.608 117.898 105.866 117.866C106.706 117.769 106.932 117.737 107.352 117.576C108.029 117.317 108.159 116.962 108.256 115.768C108.352 113.54 108.32 110.86 108.32 107.825C108.32 105.663 108.352 101.433 108.287 100.077C108.191 98.9471 107.707 98.6564 106.738 98.4626C106.254 98.366 105.608 98.2366 104.704 98.14C104.575 97.9136 105.156 96.9131 105.317 96.7196V96.7192Z" fill="white" fill-opacity="0.5"/>
<path fill-rule="evenodd" clip-rule="evenodd" d="M66.2527 118.06C65.4456 117.963 64.8645 117.834 64.1543 117.511C64.0574 117.447 63.8957 117.124 63.8957 116.995C63.8313 115.865 63.8313 112.636 63.8313 110.473C63.8313 108.73 63.541 107.212 62.7982 106.147C61.9264 104.92 60.6676 104.21 59.053 104.21C57.6326 104.21 55.7277 105.178 54.1456 106.534C54.1134 106.567 53.8552 106.793 53.8874 106.437C53.8874 106.082 53.9521 105.372 53.9843 104.888C54.0169 104.436 53.7583 104.21 53.7583 104.21C52.7252 104.726 49.8197 105.404 48.754 105.501C47.9794 105.663 47.7856 106.405 48.5931 106.663H48.6253C49.4964 106.922 50.0779 107.212 50.5295 107.503C50.8524 107.761 50.8202 108.116 50.8202 108.407C50.8524 110.828 50.8524 114.541 50.7559 116.575C50.7237 117.382 50.4977 117.673 49.9162 117.802L49.9809 117.77C49.5289 117.867 49.1738 117.963 48.6249 118.028C48.4311 118.222 48.4311 119.255 48.6249 119.481C48.98 119.481 50.8524 119.384 52.4026 119.384C54.5333 119.384 55.6311 119.481 56.1797 119.481C56.4057 119.223 56.4704 118.254 56.3413 118.028C55.7277 117.996 55.2756 117.931 54.8562 117.802C54.2751 117.672 54.1134 117.382 54.0809 116.704C54.0169 114.993 54.0169 111.377 54.0169 108.924C54.0169 108.246 54.2103 107.923 54.4038 107.729C55.1465 107.083 56.3413 106.631 57.4066 106.631C58.4397 106.631 59.1174 106.954 59.6341 107.374C60.3443 107.955 60.5704 108.794 60.6673 109.408C60.8285 110.796 60.7642 113.54 60.7642 115.929C60.7642 117.221 60.6673 117.544 60.1834 117.705C59.9571 117.802 59.3759 117.931 58.6979 117.995C58.4719 118.222 58.5366 119.223 58.6979 119.449C59.6341 119.449 60.732 119.352 62.3462 119.352C64.3477 119.352 65.6394 119.449 66.1561 119.449C66.3171 119.255 66.3818 118.319 66.2527 118.06ZM75.1957 105.728C73.4849 105.728 72.4192 107.051 72.4192 109.117C72.4192 111.216 73.3554 113.637 76.0028 113.637C76.4548 113.637 77.2945 113.443 77.6814 112.991C78.2951 112.411 78.7149 111.248 78.7149 110.021C78.7149 107.342 77.391 105.727 75.1957 105.727V105.728ZM74.9697 119.997C74.3242 119.997 73.8718 120.191 73.5814 120.353C72.2254 121.224 71.6121 122.063 71.6121 123.065C71.6121 124.001 71.9672 124.743 72.7421 125.389C73.6784 126.196 74.9697 126.584 76.6161 126.584C79.9093 126.584 81.3622 124.808 81.3622 123.065C81.3622 121.837 80.7486 121.03 79.4898 120.579C78.5858 120.191 76.9394 119.997 74.9697 119.997ZM75.1957 128.392C73.2263 128.392 71.8056 127.972 70.579 127.036C69.3842 126.132 68.8679 124.775 68.8679 123.839C68.8679 123.581 68.9326 122.871 69.5137 122.225C69.8684 121.837 70.6437 121.095 72.484 119.836C72.5483 119.804 72.5805 119.772 72.5805 119.706C72.5805 119.642 72.5158 119.577 72.4514 119.545C70.9341 118.964 70.4821 118.028 70.3526 117.511V117.447C70.3208 117.253 70.2561 117.059 70.5468 116.866C70.7728 116.704 71.0957 116.511 71.4505 116.285C71.9994 115.962 72.5805 115.606 72.9356 115.316C73.0003 115.251 73.0003 115.187 73.0003 115.122C73.0003 115.058 72.9356 114.993 72.8709 114.961C70.6115 114.218 69.4815 112.539 69.4815 110.021C69.4815 108.375 70.2239 106.889 71.5474 105.953C72.4514 105.243 74.7115 104.371 76.1966 104.371H76.2935C77.8108 104.403 78.6501 104.726 79.8446 105.146C80.4904 105.372 81.104 105.469 81.9437 105.469C83.2025 105.469 83.7514 105.081 84.203 104.63C84.2356 104.694 84.3003 104.856 84.3325 105.275C84.3647 105.695 84.2356 106.308 83.9127 106.76C83.6545 107.116 83.0734 107.374 82.4922 107.374H82.3306C81.7495 107.309 81.491 107.245 81.491 107.245L81.3622 107.309C81.33 107.374 81.3622 107.438 81.3944 107.535L81.4269 107.6C81.4913 107.89 81.6204 108.762 81.6204 108.988C81.6204 111.636 80.5551 112.797 79.4251 113.669C78.3272 114.476 77.0685 114.993 75.6477 115.122C75.6155 115.122 75.4868 115.122 75.1957 115.154C75.0344 115.154 74.8084 115.187 74.7759 115.187H74.7437C74.4855 115.251 73.84 115.574 73.84 116.123C73.84 116.607 74.1304 117.189 75.5186 117.285C75.809 117.318 76.0993 117.318 76.4226 117.35C78.2629 117.479 80.5551 117.641 81.6204 117.996C83.1056 118.544 84.0418 119.868 84.0418 121.45C84.0418 123.84 82.331 126.067 79.4898 127.455C78.1016 128.069 76.713 128.392 75.1957 128.392ZM93.598 105.889C92.9204 105.889 92.3067 106.05 91.8547 106.373C90.5959 107.148 89.9501 108.698 89.9501 110.957C89.9501 115.187 92.0807 118.157 95.1157 118.157C96.0197 118.157 96.7299 117.899 97.3432 117.382C98.2794 116.607 98.764 115.058 98.764 112.894C98.764 108.698 96.6652 105.889 93.5984 105.889L93.598 105.889ZM94.1795 119.707C88.691 119.707 86.7216 115.671 86.7216 111.894C86.7216 109.246 87.7869 107.212 89.9176 105.759C91.4352 104.823 93.2433 104.307 94.8575 104.307C99.0544 104.307 101.992 107.309 101.992 111.636C101.992 114.573 100.83 116.898 98.6024 118.319C97.537 119.029 95.6968 119.707 94.1791 119.707H94.1795ZM36.6473 105.889C35.9693 105.889 35.356 106.05 34.9036 106.373C33.6448 107.148 32.999 108.698 32.999 110.957C32.999 115.187 35.1296 118.157 38.1646 118.157C39.0686 118.157 39.7788 117.899 40.3925 117.382C41.3283 116.607 41.8129 115.058 41.8129 112.894C41.8129 108.698 39.7466 105.889 36.6473 105.889ZM37.2284 119.707C31.7399 119.707 29.7705 115.671 29.7705 111.894C29.7705 109.246 30.8358 107.212 32.9665 105.759C34.4841 104.823 36.2922 104.307 37.9064 104.307C42.1036 104.307 45.0414 107.309 45.0414 111.636C45.0414 114.573 43.8791 116.898 41.6513 118.319C40.6181 119.029 38.7779 119.707 37.2284 119.707ZM0.326404 119.384C0.26168 119.287 0.196957 118.997 0.229494 118.641C0.229494 118.383 0.294217 118.222 0.326404 118.157C1.00442 118.06 1.35952 117.963 1.74681 117.867C2.39265 117.705 2.65084 117.35 2.68303 116.543C2.78029 114.606 2.78028 110.925 2.74775 108.375V108.31C2.74775 108.02 2.74775 107.664 2.39265 107.406C1.87591 107.083 1.26261 106.793 0.455498 106.566C0.165119 106.47 -0.0287005 106.308 0.00348612 106.115C0.00348612 105.921 0.197308 105.695 0.617133 105.63C1.68244 105.533 4.45854 104.856 5.55638 104.371C5.62111 104.436 5.71801 104.63 5.71801 104.888L5.68583 105.243C5.65329 105.598 5.6211 106.018 5.6211 106.437C5.6211 106.567 5.75055 106.663 5.8793 106.663C5.94402 106.663 6.00874 106.631 6.07312 106.599C8.13936 104.985 10.0118 104.403 10.9802 104.403C12.5626 104.403 13.7895 105.146 14.7257 106.696C14.7901 106.793 14.8548 106.825 14.9517 106.825C15.0161 106.825 15.1127 106.793 15.1452 106.728C17.0502 105.275 18.9551 104.403 20.2139 104.403C23.2164 104.403 24.9922 106.631 24.9922 110.409C24.9922 111.474 24.9922 112.862 24.96 114.122C24.96 115.251 24.9278 116.285 24.9278 117.027C24.9278 117.188 25.1535 117.705 25.5086 117.802C25.9606 118.028 26.5743 118.125 27.3814 118.254H27.4136C27.4783 118.48 27.3492 119.319 27.2201 119.481C27.0263 119.481 26.7355 119.481 26.413 119.449C25.5957 119.406 24.7775 119.384 23.9591 119.384C21.9576 119.384 20.9245 119.416 19.9232 119.481C19.8591 119.223 19.8266 118.448 19.9232 118.254C20.5046 118.157 20.795 118.06 21.1505 117.963C21.7963 117.77 21.9576 117.479 21.9901 116.64C21.9901 116.026 22.1189 110.796 21.925 109.537C21.7316 108.246 20.7628 106.728 18.6319 106.728C17.8247 106.728 16.566 107.051 15.339 107.987C15.2746 108.052 15.2096 108.213 15.2096 108.31V108.342C15.339 109.02 15.339 109.795 15.339 110.99V113.088C15.339 114.541 15.3065 115.897 15.339 116.93C15.339 117.641 15.7588 117.802 16.114 117.931C16.3078 117.963 16.4365 117.996 16.5982 118.028C16.8885 118.093 17.1793 118.157 17.6313 118.254C17.696 118.383 17.696 118.803 17.5991 119.158C17.5665 119.352 17.5018 119.448 17.4696 119.481C16.3721 119.449 15.2421 119.416 13.5957 119.416C13.1115 119.416 12.2718 119.449 11.5616 119.449C10.9802 119.449 10.4316 119.481 10.109 119.481C10.0765 119.416 10.0118 119.19 10.0118 118.835C10.0118 118.545 10.0765 118.319 10.1412 118.254C10.3025 118.222 10.4316 118.189 10.5932 118.189C10.9802 118.125 11.3034 118.06 11.626 117.996C12.1753 117.834 12.3688 117.544 12.4009 116.833C12.4979 115.219 12.5948 110.603 12.3688 109.44C11.9815 107.568 10.9162 106.631 9.20467 106.631C8.20408 106.631 6.94461 107.116 5.91183 107.891C5.7502 108.02 5.6211 108.342 5.6211 108.633V110.538C5.6211 112.862 5.62111 115.768 5.65329 117.027C5.68583 117.414 5.81457 117.867 6.55732 118.028C6.71895 118.06 6.97714 118.125 7.30006 118.157L7.88082 118.254C7.94589 118.448 7.91335 119.223 7.78426 119.481C7.46134 119.481 7.07405 119.449 6.62169 119.449C5.94402 119.416 5.07218 119.384 4.10379 119.384C2.97375 119.384 2.16664 119.416 1.52081 119.449C1.0688 119.384 0.713693 119.384 0.326404 119.384Z" fill="white" fill-opacity="0.5"/>
<path fill-rule="evenodd" clip-rule="evenodd" d="M77.0607 88.7194L75.2846 88.1123C75.2846 88.1123 75.5015 79.058 72.2518 78.4083C70.0861 75.8951 72.5992 -28.1691 80.3972 78.0613C80.3972 78.0613 77.7109 79.404 77.2344 81.7007C76.7142 83.9537 77.0607 88.7194 77.0607 88.7194Z" fill="white" fill-opacity="0.5"/>
<path fill-rule="evenodd" clip-rule="evenodd" d="M77.0607 88.7194L75.2846 88.1123C75.2846 88.1123 75.5015 79.058 72.2518 78.4083C70.0861 75.8951 72.5992 -28.1691 80.3972 78.0613C80.3972 78.0613 77.7109 79.404 77.2344 81.7007C76.7142 83.9537 77.0607 88.7194 77.0607 88.7194Z" fill="white" fill-opacity="0.5"/>
<path fill-rule="evenodd" clip-rule="evenodd" d="M78.0142 79.9681C78.0142 79.9681 93.568 69.7433 89.9281 48.4709C86.4192 33.0049 78.1443 27.936 77.2344 25.9862C76.2382 24.5999 75.2847 22.1741 75.2847 22.1741L75.9349 65.1941C75.9349 65.2378 74.5917 78.3648 78.0147 79.9685" fill="white" fill-opacity="0.5"/>
<path fill-rule="evenodd" clip-rule="evenodd" d="M78.0142 79.9681C78.0142 79.9681 93.568 69.7433 89.9281 48.4709C86.4192 33.0049 78.1443 27.936 77.2344 25.9862C76.2382 24.5999 75.2847 22.1741 75.2847 22.1741L75.9349 65.1941C75.9349 65.2378 74.5917 78.3648 78.0147 79.9685" fill="white" fill-opacity="0.5"/>
<path fill-rule="evenodd" clip-rule="evenodd" d="M74.3762 80.5306C74.3762 80.5306 59.7754 70.566 60.6421 53.0202C61.4651 35.474 71.7762 26.8525 73.7691 25.2929C75.0691 23.9065 75.1123 23.3864 75.1992 22C76.109 23.9497 75.9358 51.1573 76.0653 54.3629C76.455 66.7102 75.3724 78.1917 74.3762 80.5306Z" fill="white" fill-opacity="0.5"/>
<path fill-rule="evenodd" clip-rule="evenodd" d="M74.3762 80.5306C74.3762 80.5306 59.7754 70.566 60.6421 53.0202C61.4651 35.474 71.7762 26.8525 73.7691 25.2929C75.0691 23.9065 75.1123 23.3864 75.1992 22C76.109 23.9497 75.9358 51.1573 76.0653 54.3629C76.455 66.7102 75.3724 78.1917 74.3762 80.5306Z" fill="white" fill-opacity="0.5"/>
</svg>
