<svg width="150" height="150" viewBox="0 0 150 150" fill="none" xmlns="http://www.w3.org/2000/svg">
<path d="M102.538 34.44C101.806 34.44 101.319 34.5396 100.827 34.6628V34.7386H100.902C101.244 35.3784 101.806 35.876 102.242 36.4684C102.584 37.1366 102.875 37.8238 103.194 38.492L103.292 38.3925C103.878 37.9707 104.174 37.3072 104.174 36.293C103.93 35.9945 103.878 35.677 103.663 35.4021C103.419 34.9803 102.88 34.7623 102.538 34.44ZM36.0574 117.816H30.2728C30.0977 108.507 29.5362 99.2103 28.59 89.9495H28.5431L19.7303 117.816H15.3099L6.56739 89.9495H6.49239C5.81299 99.2239 5.40655 108.517 5.2736 117.816H0C0.285553 106.13 1.14131 94.4651 2.56414 82.8645H9.74093L18.0896 108.536H18.1365L26.5602 82.8645H33.3948C34.9089 95.6033 35.8136 107.252 36.0808 117.816H36.0574ZM61.155 92.0252C58.8112 104.958 55.6845 114.365 51.8547 120.214C48.8265 124.73 45.5311 127 41.9404 127C40.9888 127 39.8169 126.701 38.4012 126.109V123C39.109 123.1 39.9153 123.171 40.82 123.171C42.5029 123.171 43.8482 122.678 44.8748 121.763C46.0936 120.626 46.7077 119.346 46.7077 117.939C46.7077 116.953 46.2436 114.977 45.2686 111.967L38.945 92.0252H44.6358L49.1781 106.935C50.2047 110.342 50.6453 112.688 50.4484 114.043C52.961 107.328 54.6955 99.9727 55.6752 92.0252H61.155ZM138.206 117.816H121.752V82.8645H127.293V113.522H138.206V117.816ZM117.454 118.659L111.107 115.498C111.669 115.029 112.204 114.512 112.696 113.92C115.405 110.735 116.751 105.972 116.751 99.7026C116.751 88.1249 112.26 82.3526 103.274 82.3526C98.8765 82.3526 95.4358 83.8076 92.9701 86.7458C90.2841 89.9542 88.9153 94.6933 88.9153 100.94C88.9153 107.086 90.1106 111.579 92.506 114.465C94.7045 117.034 97.9999 118.342 102.42 118.342C104.056 118.342 105.57 118.143 106.939 117.726L115.218 122.612L117.486 118.664L117.454 118.659ZM96.8749 110.806C95.4592 108.536 94.7748 104.882 94.7748 99.8448C94.7748 91.0347 97.414 86.6416 102.711 86.6416C105.472 86.6416 107.521 87.7031 108.814 89.8026C110.207 92.0963 110.914 95.7028 110.914 100.688C110.914 109.551 108.252 114.02 102.978 114.02C100.194 114.02 98.1687 112.958 96.8515 110.859L96.8749 110.806ZM86.5199 108.143C86.5199 111.105 85.4464 113.55 83.2713 115.422C81.1244 117.323 78.2649 118.285 74.6273 118.285C71.2335 118.285 67.9849 117.199 64.788 115.024L66.2786 112.015C69.0115 113.399 71.4772 114.091 73.7273 114.091C75.8039 114.091 77.4399 113.621 78.6118 112.707C79.7837 111.768 80.4916 110.46 80.4916 108.806C80.4916 106.731 79.0525 104.954 76.4368 103.475C74.0179 102.12 69.1615 99.3282 69.1615 99.3282C66.5224 97.3804 65.2286 95.3047 65.2286 91.8736C65.2286 89.0348 66.2036 86.7648 68.1584 85.035C70.1366 83.2578 72.6491 82.3953 75.7758 82.3953C78.8865 82.368 81.9359 83.2698 84.5417 84.9876L83.201 87.997C81.1065 87.0645 78.8471 86.5696 76.5586 86.542C74.7773 86.542 73.4085 86.9875 72.4569 87.85C71.5054 88.7126 70.9194 89.7978 70.9194 91.158C70.9194 93.2337 72.3866 95.0109 75.068 96.5369C77.5337 97.8923 82.4885 100.759 82.4885 100.759C85.198 102.684 86.5433 104.759 86.5433 108.138L86.5199 108.143ZM145.144 71.1446C141.797 71.0688 139.209 71.4147 137.039 72.3531C136.429 72.5995 135.426 72.5995 135.328 73.391C135.67 73.7369 135.717 74.2819 136.012 74.7463C136.523 75.5852 137.381 76.7226 138.187 77.315C139.068 78.0069 139.945 78.6988 140.85 79.2912C142.486 80.3053 144.319 80.8977 145.926 81.9072C146.831 82.4996 147.759 83.2626 148.659 83.8834C149.123 84.2057 149.414 84.7743 150 84.9687V84.8454C149.705 84.4758 149.634 83.9308 149.339 83.49C148.922 83.0683 148.509 82.6986 148.092 82.2816C146.87 80.6407 145.404 79.2004 143.747 78.0116C142.406 77.097 139.476 75.8127 138.937 74.2582L138.862 74.1587C139.767 74.0829 140.84 73.7369 141.717 73.4905C143.133 73.1208 144.45 73.1919 145.917 72.8223C146.59 72.6457 147.258 72.4481 147.919 72.2299V71.8602C147.164 71.0972 146.601 70.0593 145.819 69.3437C143.661 67.4354 141.359 65.7019 138.932 64.1591C137.615 63.2966 135.956 62.7516 134.564 62.036C134.076 61.7896 133.223 61.6663 132.951 61.2446C132.196 60.3062 131.756 59.0977 131.217 57.984C129.99 55.5747 128.851 53.1214 127.799 50.6289C127.045 48.975 126.604 47.3447 125.676 45.814C121.377 38.6294 116.69 34.2884 109.513 30.0184C107.975 29.1275 106.119 28.7578 104.164 28.2887C103.114 28.2413 102.088 28.1654 101.038 28.118C100.353 27.8195 99.6969 27.0328 99.1109 26.6347C96.7202 25.104 90.5653 21.8197 88.8309 26.1655C87.7059 28.9284 90.4903 31.6203 91.47 33.0041C92.1779 33.9898 93.0826 35.0798 93.5935 36.1651C93.8889 36.9044 93.9592 37.6721 94.2545 38.4351C94.9155 40.2881 95.5483 42.3591 96.4296 44.0889C96.8937 44.9799 97.3812 45.9135 97.9671 46.7049C98.3093 47.1741 98.8953 47.3731 99.0172 48.1361C98.4312 48.9987 98.3843 50.2593 98.0656 51.2971C96.5515 56.0837 97.1374 61.9839 99.2609 65.5145C99.9453 66.5761 101.53 68.8983 103.658 68.0073C105.538 67.2443 105.125 64.8463 105.66 62.7232C105.781 62.2066 105.706 61.8843 105.955 61.5384V61.6379C106.564 62.8227 107.15 63.9601 107.689 65.1449C108.96 67.2206 111.228 69.3674 113.108 70.7987C114.111 71.5617 114.89 72.8744 116.136 73.3388V73.2156H116.038C115.771 72.846 115.429 72.6706 115.086 72.3768C114.295 71.584 113.56 70.7351 112.888 69.8366C111.153 67.467 109.592 64.851 108.224 62.1592C107.564 60.8292 106.962 59.471 106.419 58.0883C106.175 57.5954 106.175 56.8277 105.758 56.5813C105.125 57.4959 104.197 58.2826 103.756 59.4437C102.95 61.2446 102.875 63.4909 102.561 65.8131C102.416 65.8605 102.486 65.8131 102.416 65.9126C101.075 65.5667 100.611 64.1828 100.119 62.998C98.8484 59.9887 98.6515 55.1737 99.7297 51.7189C100.025 50.828 101.267 48.0413 100.78 47.2025C100.513 46.3874 99.6828 45.9182 99.2422 45.2784C98.6796 44.487 98.1171 43.4776 97.7281 42.5866C96.7249 40.217 96.2374 37.601 95.1405 35.2315C94.653 34.1462 93.7717 33.0088 93.0639 31.9994C92.2576 30.862 91.381 30.0516 90.7669 28.7152C90.5466 28.246 90.2559 27.483 90.5981 26.9854C90.6731 26.6394 90.8419 26.5162 91.1841 26.4167C91.7232 25.9475 93.2842 26.5399 93.8232 26.81C95.3608 27.4261 96.6546 28.0185 97.9484 28.9095C98.5343 29.3313 99.1672 30.118 99.9266 30.3407H100.808C102.149 30.6393 103.639 30.4165 104.886 30.8099C107.108 31.5255 109.11 32.5633 110.914 33.696C116.434 37.2778 120.922 42.2665 123.927 48.1598C124.438 49.1219 124.659 50.0128 125.123 51.0223C125.976 53.1217 127.077 55.2164 127.954 57.2163C128.831 59.2162 129.665 61.2398 130.931 62.8938C131.563 63.7847 134.057 64.2492 135.201 64.6947C136.031 65.088 137.325 65.434 138.056 65.8794C139.495 66.7704 140.911 67.7798 142.256 68.7656C142.94 69.2347 145.017 70.2963 145.139 71.1351L145.144 71.1446Z" fill="white" fill-opacity="0.5"/>
</svg>
