<svg width="150" height="150" viewBox="0 0 150 150" fill="none" xmlns="http://www.w3.org/2000/svg">
<path d="M35.3936 53.4644H63.685V55.7001H37.9869V72.5254H62.1527V74.7609H37.9869V93.2336H63.9797V95.469H35.3936V53.4644ZM66.2197 53.4644H69.2256L82.546 71.9371L96.1611 53.4641L114.68 30L84.2552 73.8786L99.9334 95.469H96.8095L82.546 75.8199L68.2233 95.469H65.1586L80.9546 73.8784L66.2194 53.4644H66.2197ZM101.053 55.7001V53.4641H133.294V55.6998H118.441V95.4687H115.847V55.7001H101.053ZM0 53.4641H3.2417L47.9429 119.966L29.4703 95.4687L2.71113 56.6412L2.59336 95.4693H0V53.4641ZM133.032 92.5584C132.502 92.5584 132.105 92.1507 132.105 91.6229C132.105 91.0957 132.502 90.6874 133.032 90.6874C133.569 90.6874 133.96 91.0954 133.96 91.6229C133.96 92.1504 133.569 92.5584 133.032 92.5584ZM135.581 90.0973H136.968C136.987 90.8444 137.536 91.3468 138.343 91.3468C139.245 91.3468 139.756 90.8068 139.756 89.7958V83.391H141.169V89.8019C141.169 91.6229 140.11 92.6718 138.356 92.6718C136.709 92.6718 135.581 91.6544 135.581 90.097V90.0973ZM143.017 90.0157H144.418C144.538 90.8758 145.383 91.4219 146.6 91.4219C147.736 91.4219 148.568 90.838 148.568 90.0344C148.568 89.3438 148.038 88.9293 146.834 88.6468L145.66 88.3643C144.014 87.981 143.263 87.1899 143.263 85.8588C143.263 84.2452 144.588 83.1714 146.575 83.1714C148.423 83.1714 149.773 84.245 149.855 85.7709H148.48C148.347 84.9358 147.616 84.4145 146.556 84.4145C145.44 84.4145 144.696 84.9483 144.696 85.7645C144.696 86.4111 145.175 86.7818 146.36 87.058L147.363 87.3029C149.23 87.7363 150 88.4898 150 89.8523C150 91.5853 148.65 92.6718 146.493 92.6718C144.475 92.6718 143.118 91.6354 143.017 90.0154V90.0157Z" fill="white" fill-opacity="0.5"/>
</svg>
