<svg width="150" height="150" viewBox="0 0 150 150" fill="none" xmlns="http://www.w3.org/2000/svg">
<path d="M74.1328 121C73.6406 121 73.1484 120.861 72.7031 120.629L68.2031 117.982C67.5234 117.611 67.8516 117.471 68.0859 117.402C68.9766 117.1 69.1641 117.03 70.125 116.473C70.2188 116.427 70.3594 116.45 70.4531 116.496L73.9219 118.539C74.0391 118.609 74.2266 118.609 74.3438 118.539L87.8906 110.785C88.0078 110.716 88.1016 110.576 88.1016 110.414V94.9294C88.1016 94.7669 88.0312 94.6276 87.8906 94.558L74.3438 86.8273C74.2266 86.7577 74.0625 86.7577 73.9219 86.8273L60.375 94.558C60.2344 94.6276 60.1641 94.7901 60.1641 94.9294V110.414C60.1641 110.553 60.2578 110.692 60.375 110.762L64.0781 112.875C66.0938 113.873 67.3359 112.689 67.3359 111.528V96.2294C67.3359 96.0205 67.5 95.8348 67.7344 95.8348H69.4453C69.6562 95.8348 69.8438 95.9973 69.8438 96.2294V111.528C69.8438 114.198 68.3906 115.707 65.8359 115.707C65.0625 115.707 64.4297 115.707 62.7188 114.871L59.1562 112.851C58.2891 112.341 57.7266 111.412 57.7266 110.414V94.9294C57.7266 93.9311 58.2656 92.9793 59.1562 92.4918L72.7031 84.7379C73.5703 84.2504 74.6953 84.2504 75.5391 84.7379L89.0859 92.4918C89.9531 93.0025 90.5156 93.9311 90.5156 94.9294V110.414C90.5156 111.412 89.9766 112.364 89.0859 112.851L75.5391 120.605C75.1406 120.861 74.6484 121 74.1328 121ZM85.0781 105.724C85.0781 102.823 83.1094 102.056 78.9375 101.499C74.7188 100.942 74.2969 100.664 74.2969 99.6885C74.2969 98.876 74.6484 97.8081 77.7656 97.8081C80.5547 97.8081 81.5859 98.4117 82.0078 100.269C82.0547 100.455 82.1953 100.571 82.3828 100.571H84.1406C84.2578 100.571 84.3516 100.524 84.4219 100.455C84.4922 100.362 84.5391 100.269 84.5156 100.153C84.2344 96.9491 82.1016 95.4633 77.7656 95.4633C73.8984 95.4633 71.6016 97.0884 71.6016 99.7814C71.6016 102.73 73.8984 103.519 77.6016 103.89C82.0312 104.332 82.3828 104.958 82.3828 105.817C82.3828 107.326 81.1641 107.953 78.3047 107.953C74.7188 107.953 73.9219 107.071 73.6641 105.307C73.6406 105.121 73.4766 104.982 73.2656 104.982H71.5078C71.2969 104.982 71.1094 105.144 71.1094 105.376C71.1094 107.628 72.3516 110.321 78.2812 110.321C82.6172 110.321 85.0781 108.65 85.0781 105.724ZM97.8516 94.0937C97.8516 95.5098 96.6797 96.6705 95.25 96.6705C93.8203 96.6705 92.6484 95.5098 92.6484 94.0937C92.6484 92.6311 93.8672 91.5168 95.25 91.5168C96.6562 91.4935 97.8516 92.6311 97.8516 94.0937ZM97.4297 94.0937C97.4297 92.8865 96.4453 91.9346 95.2266 91.9346C94.0312 91.9346 93.0469 92.8865 93.0469 94.0937C93.0469 95.3008 94.0312 96.2759 95.2266 96.2759C96.4453 96.2527 97.4297 95.2776 97.4297 94.0937ZM96.375 95.533H95.7656C95.7422 95.3937 95.6484 94.6508 95.6484 94.6276C95.6016 94.4651 95.5547 94.3722 95.3438 94.3722H94.8281V95.533H94.2656V92.6311H95.2734C95.625 92.6311 96.3047 92.6311 96.3047 93.3972C96.3047 93.9311 95.9531 94.0472 95.7422 94.1169C96.1406 94.1401 96.1641 94.3954 96.2344 94.7669C96.2578 94.999 96.3047 95.3937 96.375 95.533ZM95.7188 93.4901C95.7188 93.0954 95.4375 93.0954 95.2969 93.0954H94.8281V93.9079H95.2734C95.6484 93.9079 95.7188 93.6526 95.7188 93.4901ZM32.1797 60.4085C32.1797 59.7817 31.8516 59.2245 31.3125 58.9227L16.9453 50.7278C16.7109 50.5885 16.4297 50.5188 16.1484 50.4956H16.0078C15.7266 50.4956 15.4688 50.5885 15.2109 50.7278L0.867188 58.9227C0.328125 59.2245 0 59.8049 0 60.4085L0.0234375 82.4629C0.0234375 82.7647 0.1875 83.0432 0.445312 83.2057C0.703125 83.3683 1.03125 83.3683 1.3125 83.2057L9.84375 78.3538C10.3828 78.0288 10.7109 77.4716 10.7109 76.868V66.5605C10.7109 65.9569 11.0391 65.3765 11.5781 65.0747L15.2109 63.0086C15.4922 62.8461 15.7734 62.7764 16.0781 62.7764C16.3828 62.7764 16.6875 62.8461 16.9453 63.0086L20.5781 65.0747C21.1172 65.3765 21.4453 65.9569 21.4453 66.5605V76.868C21.4453 77.4716 21.7734 78.052 22.3125 78.3538L30.8438 83.2057C31.1016 83.3683 31.4531 83.3683 31.7109 83.2057C31.9688 83.0665 32.1328 82.7647 32.1328 82.4629L32.1797 60.4085ZM110.742 36.3344V77.2859C110.742 77.8895 110.414 78.4699 109.875 78.7717L95.5078 86.9898C94.9688 87.2916 94.3125 87.2916 93.7734 86.9898L79.4062 78.7717C78.8672 78.4699 78.5391 77.8895 78.5391 77.2859V60.8496C78.5391 60.246 78.8672 59.6656 79.4062 59.3638L93.7734 51.1456C94.3125 50.8438 94.9688 50.8438 95.5078 51.1456L99.0938 53.1886C99.4922 53.4207 100.008 53.1189 100.008 52.6778V30.8556C100.008 30.2056 100.711 29.7877 101.297 30.1127L109.852 34.8486C110.391 35.1272 110.742 35.7076 110.742 36.3344ZM99.9609 66.2587C99.9609 66.0962 99.8672 65.9569 99.75 65.8872L94.8281 63.055C94.6875 62.9853 94.5234 62.9853 94.3828 63.055L89.4609 65.8872C89.3203 65.9569 89.25 66.0962 89.25 66.2587V71.9C89.25 72.0625 89.3438 72.2018 89.4609 72.2714L94.3828 75.0804C94.5234 75.1501 94.6875 75.1501 94.8047 75.0804L99.7266 72.2714C99.8672 72.2018 99.9375 72.0625 99.9375 71.9V66.2587H99.9609ZM149.133 66.0962C149.672 65.7944 150 65.214 150 64.6104V60.6406C150 60.037 149.672 59.4566 149.133 59.1549L134.859 50.9367C134.32 50.6349 133.664 50.6349 133.125 50.9367L118.758 59.1549C118.219 59.4566 117.891 60.037 117.891 60.6406V77.0769C117.891 77.7038 118.219 78.2609 118.758 78.5627L133.031 86.6184C133.547 86.9202 134.203 86.9202 134.742 86.6184L143.367 81.8593C143.953 81.5343 143.953 80.6985 143.367 80.3735L128.906 72.1553C128.625 71.9928 128.461 71.7142 128.461 71.4124V66.2587C128.461 65.9569 128.625 65.6783 128.906 65.5158L133.406 62.9389C133.664 62.7764 134.016 62.7764 134.273 62.9389L138.773 65.5158C139.031 65.6783 139.219 65.9569 139.219 66.2587V70.2981C139.219 70.9481 139.945 71.366 140.531 71.041L149.133 66.0962ZM131.016 66.9087C130.922 66.9784 130.852 67.0712 130.852 67.1873V70.3446C130.852 70.4606 130.922 70.5767 131.016 70.6231L133.781 72.2018C133.875 72.2714 134.016 72.2714 134.109 72.2018L136.875 70.6231C136.969 70.5535 137.039 70.4606 137.039 70.3446V67.1873C137.039 67.0712 136.969 66.9551 136.875 66.9087L134.109 65.3301C134.016 65.2604 133.875 65.2604 133.781 65.3301L131.016 66.9087ZM71.4375 77.0073V60.6638C71.4375 60.0602 71.0625 59.4799 70.5234 59.1781L56.2031 51.0063C55.7109 50.7278 55.0312 50.6813 54.4688 51.0063L40.1484 59.1781C39.6094 59.4799 39.2344 60.037 39.2344 60.6638V77.0073C39.2344 77.6573 39.6797 78.2145 40.1719 78.4931L54.5156 86.6648C55.0781 86.9898 55.7344 86.9666 56.25 86.6648L70.5469 78.4931C70.9688 78.2609 71.2734 77.8663 71.3906 77.402C71.4141 77.2859 71.4375 77.1466 71.4375 77.0073ZM54.0234 48.0116L53.8359 48.1277H54.0938L54.0234 48.0116ZM71.8828 78.2377L71.7891 78.0752V78.2841L71.8828 78.2377Z" fill="white" fill-opacity="0.5"/>
</svg>
