<svg width="1395" height="316" viewBox="0 0 1395 316" fill="none" xmlns="http://www.w3.org/2000/svg">
<path d="M250.219 232.251V309.093H0V6.90709H244.63V83.7486H99.7436V119.148H227.003V192.536H99.7436V232.251H250.219Z" fill="white" fill-opacity="0.05"/>
<path d="M418.258 233.115H390.742V309.093H289.279V6.90709H434.165C461.967 6.90709 486.186 11.5118 506.823 20.7213C527.46 29.9308 543.367 43.1694 554.545 60.4372C565.723 77.7049 571.312 97.8506 571.312 120.874C571.312 142.459 566.44 161.31 556.695 177.426C546.95 193.543 532.905 206.35 514.562 215.847L577.761 309.093H469.419L418.258 233.115ZM468.989 120.874C468.989 109.65 465.55 101.016 458.671 94.9727C451.792 88.6412 441.474 85.4754 427.716 85.4754H390.742V156.273H427.716C441.474 156.273 451.792 153.251 458.671 147.208C465.55 140.876 468.989 132.098 468.989 120.874Z" fill="white" fill-opacity="0.05"/>
<path d="M609.626 6.90709H711.09V309.093H609.626V6.90709Z" fill="white" fill-opacity="0.05"/>
<path d="M915.568 316C883.754 316 855.091 309.381 829.582 296.142C804.073 282.616 784.01 263.909 769.392 240.022C755.061 215.847 747.896 188.506 747.896 158C747.896 127.494 755.061 100.297 769.392 76.4098C784.01 52.235 804.073 33.5282 829.582 20.2896C855.091 6.7632 883.754 0 915.568 0C944.803 0 970.886 5.18033 993.815 15.541C1016.74 25.9016 1035.66 40.867 1050.57 60.4372L986.507 117.852C967.876 94.2532 945.95 82.4536 920.727 82.4536C899.518 82.4536 882.464 89.3606 869.566 103.175C856.668 116.701 850.219 134.976 850.219 158C850.219 181.024 856.668 199.443 869.566 213.257C882.464 226.783 899.518 233.546 920.727 233.546C945.95 233.546 967.876 221.747 986.507 198.148L1050.57 255.563C1035.66 275.133 1016.74 290.098 993.815 300.459C970.886 310.82 944.803 316 915.568 316Z" fill="white" fill-opacity="0.05"/>
<path d="M1202.39 208.94L1179.61 234.41V309.093H1079.86V6.90709H1179.61V116.557L1278.49 6.90709H1388.98L1268.6 139.869L1395 309.093H1277.63L1202.39 208.94Z" fill="white" fill-opacity="0.05"/>
</svg>
