<svg width="482" height="200" viewBox="0 0 482 200" fill="none" xmlns="http://www.w3.org/2000/svg">
<mask id="path-1-outside-1" maskUnits="userSpaceOnUse" x="-11.3469" y="-44.4839" width="647.158" height="288.545" fill="black">
<rect fill="white" x="-11.3469" y="-44.4839" width="647.158" height="288.545"/>
<path d="M38.5162 51.6344L37.7278 62.2852L75.2582 57.8136L73.5184 79.907L35.8612 84.3938L34.9704 96.3442L79.4744 91.0416L77.6021 114.181L3.80913 122.973L10.9729 32.0001L83.1175 23.4042L81.2451 46.5434L38.5162 51.6344Z"/>
<path d="M189.152 40.3812C190.09 48.2515 188.798 55.4004 185.278 61.8278C181.832 68.1605 176.476 73.2187 169.211 77.0025L187.132 101.131L156.067 104.832L140.853 83.986L133.499 84.8622L131.723 107.732L101.801 111.298L108.964 20.3247L148.777 15.5811C160.442 14.1913 169.794 15.6948 176.833 20.0916C183.947 24.3937 188.053 31.1569 189.152 40.3812ZM159.197 46.9114C158.481 40.9029 154.404 38.3418 146.965 39.2281L136.948 40.4215L135.245 61.7382L147.544 60.2728C151.685 59.7793 154.777 58.3811 156.817 56.0781C158.847 53.6905 159.64 50.635 159.197 46.9114Z"/>
<path d="M216.118 7.5576L246.041 3.99238L238.878 94.9653L208.955 98.5306L216.118 7.5576Z"/>
<path d="M316.667 87.7569C307.622 88.8345 299.438 88.136 292.113 85.6614C284.863 83.0921 278.978 79.0298 274.459 73.4745C270.023 67.9092 267.342 61.2337 266.414 53.448C265.184 43.1236 266.457 33.6596 270.233 25.0561C274.093 16.4425 279.982 9.3895 287.901 3.89716C295.893 -1.68987 305.3 -5.12795 316.119 -6.41707C324.657 -7.43427 332.408 -6.77005 339.375 -4.42442C346.331 -2.16342 351.753 1.61072 355.64 6.898L336.097 26.3492C331.298 19.8831 324.967 17.1184 317.106 18.0551C312.457 18.609 308.451 20.2449 305.089 22.9629C301.726 25.6809 299.278 29.2341 297.743 33.6225C296.199 37.9263 295.739 42.7016 296.364 47.9485C296.989 53.1953 299.142 57.2303 302.821 60.0533C306.575 62.7817 311.2 63.8185 316.694 63.1639C324.217 62.2675 330.402 58.0546 335.249 50.5251L354.884 65.3082C350.484 72.2696 345.149 77.4971 338.878 80.9907C332.692 84.4742 325.288 86.7296 316.667 87.7569Z"/>
<path d="M431.64 22.9476L466.311 67.8674L432.964 71.8405L411.511 45.0433L404.066 53.7837L402.407 75.4812L372.992 78.986L380.155 -11.9869L409.571 -15.4917L406.982 16.7447L436.958 -18.7548L471.319 -22.8488L431.64 22.9476Z"/>
<path d="M24.7362 147.515L54.6591 143.95L49.4189 211.134L89.4851 206.36L87.5616 230.149L17.5724 238.488L24.7362 147.515Z"/>
<path d="M172.563 204.315L138.71 208.349L131.679 224.893L100.108 228.655L146.07 133.059L175.486 129.554L207.121 215.904L177.324 219.454L172.563 204.315ZM165.808 183.234L158.789 161.025L148.437 185.304L165.808 183.234Z"/>
<path d="M311.927 142.908C312.864 150.779 311.573 157.927 308.052 164.355C304.606 170.688 299.251 175.746 291.986 179.529L309.906 203.658L278.842 207.359L263.628 186.513L256.274 187.389L254.498 210.259L224.575 213.825L231.739 122.852L271.552 118.108C283.216 116.718 292.568 118.222 299.608 122.619C306.721 126.921 310.828 133.684 311.927 142.908ZM281.971 149.438C281.255 143.43 277.178 140.869 269.74 141.755L259.723 142.948L258.019 164.265L270.318 162.8C274.46 162.306 277.551 160.908 279.591 158.605C281.622 156.218 282.415 153.162 281.971 149.438Z"/>
<path d="M367.219 198.889C359.527 199.805 352.204 199.863 345.251 199.06C338.287 198.173 332.446 196.638 327.728 194.454L336.634 170.991C346.841 175.354 357.143 176.916 367.54 175.677C371.344 175.224 374.205 174.411 376.122 173.238C378.04 172.066 378.903 170.676 378.712 169.068C378.53 167.544 377.327 166.443 375.103 165.764C372.964 165.075 369.588 164.447 364.977 163.881C358.879 163.062 353.795 162.123 349.725 161.063C345.645 159.919 341.934 157.915 338.593 155.051C335.325 152.093 333.374 147.949 332.739 142.617C331.942 135.932 333.022 129.881 335.977 124.465C339.007 118.954 343.741 114.442 350.181 110.928C356.61 107.33 364.432 104.982 373.646 103.884C380.239 103.099 386.448 103.045 392.272 103.725C398.172 104.309 403.338 105.582 407.773 107.542L399.597 130.66C395.869 128.873 391.826 127.681 387.469 127.084C383.196 126.478 378.862 126.436 374.466 126.96C370.324 127.453 367.183 128.428 365.042 129.885C362.901 131.342 361.926 132.874 362.117 134.482C362.309 136.09 363.475 137.239 365.614 137.928C367.838 138.607 371.383 139.214 376.247 139.751C382.156 140.42 387.146 141.284 391.216 142.344C395.37 143.394 399.076 145.356 402.333 148.229C405.59 151.103 407.531 155.163 408.156 160.41C408.943 167.011 407.816 173.024 404.776 178.45C401.736 183.876 397.002 188.388 390.572 191.987C384.133 195.5 376.348 197.801 367.219 198.889Z"/>
<path d="M462.447 118.28L461.658 128.93L499.189 124.459L497.449 146.552L459.792 151.039L458.901 162.989L503.405 157.687L501.532 180.826L427.74 189.618L434.903 98.6453L507.048 90.0495L505.176 113.189L462.447 118.28Z"/>
<path d="M620.381 76.5462L613.217 167.519L588.62 170.45L558.204 132.104L554.893 174.468L525.731 177.943L532.895 86.9699L557.492 84.0392L587.908 122.385L591.219 80.0207L620.381 76.5462Z"/>
</mask>
<path d="M38.5162 51.6344L37.7278 62.2852L75.2582 57.8136L73.5184 79.907L35.8612 84.3938L34.9704 96.3442L79.4744 91.0416L77.6021 114.181L3.80913 122.973L10.9729 32.0001L83.1175 23.4042L81.2451 46.5434L38.5162 51.6344Z" stroke="white" stroke-width="6" mask="url(#path-1-outside-1)"/>
<path d="M189.152 40.3812C190.09 48.2515 188.798 55.4004 185.278 61.8278C181.832 68.1605 176.476 73.2187 169.211 77.0025L187.132 101.131L156.067 104.832L140.853 83.986L133.499 84.8622L131.723 107.732L101.801 111.298L108.964 20.3247L148.777 15.5811C160.442 14.1913 169.794 15.6948 176.833 20.0916C183.947 24.3937 188.053 31.1569 189.152 40.3812ZM159.197 46.9114C158.481 40.9029 154.404 38.3418 146.965 39.2281L136.948 40.4215L135.245 61.7382L147.544 60.2728C151.685 59.7793 154.777 58.3811 156.817 56.0781C158.847 53.6905 159.64 50.635 159.197 46.9114Z" stroke="white" stroke-width="6" mask="url(#path-1-outside-1)"/>
<path d="M216.118 7.5576L246.041 3.99238L238.878 94.9653L208.955 98.5306L216.118 7.5576Z" stroke="white" stroke-width="6" mask="url(#path-1-outside-1)"/>
<path d="M316.667 87.7569C307.622 88.8345 299.438 88.136 292.113 85.6614C284.863 83.0921 278.978 79.0298 274.459 73.4745C270.023 67.9092 267.342 61.2337 266.414 53.448C265.184 43.1236 266.457 33.6596 270.233 25.0561C274.093 16.4425 279.982 9.3895 287.901 3.89716C295.893 -1.68987 305.3 -5.12795 316.119 -6.41707C324.657 -7.43427 332.408 -6.77005 339.375 -4.42442C346.331 -2.16342 351.753 1.61072 355.64 6.898L336.097 26.3492C331.298 19.8831 324.967 17.1184 317.106 18.0551C312.457 18.609 308.451 20.2449 305.089 22.9629C301.726 25.6809 299.278 29.2341 297.743 33.6225C296.199 37.9263 295.739 42.7016 296.364 47.9485C296.989 53.1953 299.142 57.2303 302.821 60.0533C306.575 62.7817 311.2 63.8185 316.694 63.1639C324.217 62.2675 330.402 58.0546 335.249 50.5251L354.884 65.3082C350.484 72.2696 345.149 77.4971 338.878 80.9907C332.692 84.4742 325.288 86.7296 316.667 87.7569Z" stroke="white" stroke-width="6" mask="url(#path-1-outside-1)"/>
<path d="M431.64 22.9476L466.311 67.8674L432.964 71.8405L411.511 45.0433L404.066 53.7837L402.407 75.4812L372.992 78.986L380.155 -11.9869L409.571 -15.4917L406.982 16.7447L436.958 -18.7548L471.319 -22.8488L431.64 22.9476Z" stroke="white" stroke-width="6" mask="url(#path-1-outside-1)"/>
<path d="M24.7362 147.515L54.6591 143.95L49.4189 211.134L89.4851 206.36L87.5616 230.149L17.5724 238.488L24.7362 147.515Z" stroke="white" stroke-width="6" mask="url(#path-1-outside-1)"/>
<path d="M172.563 204.315L138.71 208.349L131.679 224.893L100.108 228.655L146.07 133.059L175.486 129.554L207.121 215.904L177.324 219.454L172.563 204.315ZM165.808 183.234L158.789 161.025L148.437 185.304L165.808 183.234Z" stroke="white" stroke-width="6" mask="url(#path-1-outside-1)"/>
<path d="M311.927 142.908C312.864 150.779 311.573 157.927 308.052 164.355C304.606 170.688 299.251 175.746 291.986 179.529L309.906 203.658L278.842 207.359L263.628 186.513L256.274 187.389L254.498 210.259L224.575 213.825L231.739 122.852L271.552 118.108C283.216 116.718 292.568 118.222 299.608 122.619C306.721 126.921 310.828 133.684 311.927 142.908ZM281.971 149.438C281.255 143.43 277.178 140.869 269.74 141.755L259.723 142.948L258.019 164.265L270.318 162.8C274.46 162.306 277.551 160.908 279.591 158.605C281.622 156.218 282.415 153.162 281.971 149.438Z" stroke="white" stroke-width="6" mask="url(#path-1-outside-1)"/>
<path d="M367.219 198.889C359.527 199.805 352.204 199.863 345.251 199.06C338.287 198.173 332.446 196.638 327.728 194.454L336.634 170.991C346.841 175.354 357.143 176.916 367.54 175.677C371.344 175.224 374.205 174.411 376.122 173.238C378.04 172.066 378.903 170.676 378.712 169.068C378.53 167.544 377.327 166.443 375.103 165.764C372.964 165.075 369.588 164.447 364.977 163.881C358.879 163.062 353.795 162.123 349.725 161.063C345.645 159.919 341.934 157.915 338.593 155.051C335.325 152.093 333.374 147.949 332.739 142.617C331.942 135.932 333.022 129.881 335.977 124.465C339.007 118.954 343.741 114.442 350.181 110.928C356.61 107.33 364.432 104.982 373.646 103.884C380.239 103.099 386.448 103.045 392.272 103.725C398.172 104.309 403.338 105.582 407.773 107.542L399.597 130.66C395.869 128.873 391.826 127.681 387.469 127.084C383.196 126.478 378.862 126.436 374.466 126.96C370.324 127.453 367.183 128.428 365.042 129.885C362.901 131.342 361.926 132.874 362.117 134.482C362.309 136.09 363.475 137.239 365.614 137.928C367.838 138.607 371.383 139.214 376.247 139.751C382.156 140.42 387.146 141.284 391.216 142.344C395.37 143.394 399.076 145.356 402.333 148.229C405.59 151.103 407.531 155.163 408.156 160.41C408.943 167.011 407.816 173.024 404.776 178.45C401.736 183.876 397.002 188.388 390.572 191.987C384.133 195.5 376.348 197.801 367.219 198.889Z" stroke="white" stroke-width="6" mask="url(#path-1-outside-1)"/>
<path d="M462.447 118.28L461.658 128.93L499.189 124.459L497.449 146.552L459.792 151.039L458.901 162.989L503.405 157.687L501.532 180.826L427.74 189.618L434.903 98.6453L507.048 90.0495L505.176 113.189L462.447 118.28Z" stroke="white" stroke-width="6" mask="url(#path-1-outside-1)"/>
<path d="M620.381 76.5462L613.217 167.519L588.62 170.45L558.204 132.104L554.893 174.468L525.731 177.943L532.895 86.9699L557.492 84.0392L587.908 122.385L591.219 80.0207L620.381 76.5462Z" stroke="white" stroke-width="6" mask="url(#path-1-outside-1)"/>
</svg>
