<svg width="150" height="150" viewBox="0 0 150 150" fill="none" xmlns="http://www.w3.org/2000/svg">
<path d="M43.8234 63.92H37.9125L34.6922 80.2828H39.9422C43.4062 80.2828 45.9938 79.634 47.7047 78.3319C49.3875 77.0529 50.5359 74.8795 51.1219 71.8628C51.7031 68.9665 51.4359 66.9136 50.3672 65.7088C49.2656 64.5271 47.0906 63.9247 43.8234 63.9247V63.92ZM75 36C33.5672 36 0 53.4749 0 75C0 96.5251 33.5672 114 75 114C116.433 114 150 96.5251 150 75C150 53.4749 116.433 36 75 36ZM54.6141 82.0484C52.9914 83.5902 51.0384 84.7511 48.9 85.4451C46.8 86.0985 44.1187 86.46 40.8703 86.46H33.4688L31.4438 96.8402H22.8234L30.5156 57.766H47.0672C52.05 57.766 55.6875 59.045 57.9797 61.6262C60.2531 64.2073 60.9609 67.8312 60.0281 72.4652C59.679 74.3003 59.0383 76.0692 58.1297 77.7063C57.1947 79.3278 56.0066 80.7931 54.6094 82.0484H54.6141ZM79.7859 86.46L83.1797 69.1611C83.5688 67.2009 83.4234 65.8571 82.7344 65.1249C82.0781 64.4251 80.6344 64.0637 78.4406 64.0637H71.6297L67.2375 86.46H58.6688L66.3562 47.3626H74.9016L72.8531 57.766H80.4703C85.2844 57.766 88.575 58.5863 90.3844 60.2267C92.2172 61.895 92.7516 64.5688 92.0484 68.2668L88.4531 86.4646L79.7859 86.46ZM127.242 72.4652C126.904 74.3032 126.262 76.0737 125.344 77.7063C124.418 79.3259 123.239 80.7913 121.852 82.0484C120.214 83.5828 118.255 84.7425 116.114 85.4451C114.014 86.0985 111.328 86.46 108.084 86.46H100.711L98.6625 96.8402H90.0422L97.7344 57.766H114.286C119.269 57.766 122.906 59.045 125.198 61.654C127.472 64.212 128.18 67.8312 127.247 72.4652H127.242ZM111.037 63.92H105.15L101.93 80.2828H107.156C110.644 80.2828 113.231 79.634 114.919 78.3319C116.625 77.0529 117.773 74.8795 118.364 71.8628C118.945 68.9665 118.678 66.9136 117.577 65.7088C116.508 64.5271 114.309 63.9247 111.037 63.9247V63.92Z" fill="white" fill-opacity="0.5"/>
</svg>
