<svg width="44" height="421" viewBox="0 0 44 421" fill="none" xmlns="http://www.w3.org/2000/svg">
<path d="M43 20.64C43 24.52 42.36 27.9 41.08 30.78C39.8 33.66 37.96 35.88 35.56 37.44C33.16 39 30.36 39.78 27.16 39.78C23.96 39.78 21.16 39 18.76 37.44C16.36 35.88 14.52 33.66 13.24 30.78C11.96 27.9 11.32 24.52 11.32 20.64L11.32 14.58L0.999999 14.58L1 0.419998L43 0.42L43 20.64ZM22.24 19.74C22.24 21.66 22.66 23.1 23.5 24.06C24.38 25.02 25.6 25.5 27.16 25.5C28.72 25.5 29.92 25.02 30.76 24.06C31.64 23.1 32.08 21.66 32.08 19.74L32.08 14.58L22.24 14.58L22.24 19.74ZM0.0399966 73.0298C0.0399968 68.5098 0.979997 64.4498 2.86 60.8498C4.74 57.2498 7.34 54.4298 10.66 52.3898C14.02 50.3498 17.8 49.3298 22 49.3298C26.2 49.3298 29.96 50.3498 33.28 52.3898C36.64 54.4298 39.26 57.2498 41.14 60.8498C43.02 64.4498 43.96 68.5098 43.96 73.0298C43.96 77.5498 43.02 81.6098 41.14 85.2098C39.26 88.8098 36.64 91.6298 33.28 93.6698C29.96 95.7098 26.2 96.7298 22 96.7298C17.8 96.7298 14.02 95.7098 10.66 93.6698C7.34 91.6298 4.74 88.8098 2.86 85.2098C0.979996 81.6098 0.0399964 77.5498 0.0399966 73.0298ZM11.5 73.0298C11.5 74.7898 11.92 76.3698 12.76 77.7698C13.64 79.2098 14.86 80.3498 16.42 81.1898C18.02 82.0298 19.88 82.4498 22 82.4498C24.12 82.4498 25.96 82.0298 27.52 81.1898C29.12 80.3498 30.34 79.2098 31.18 77.7698C32.06 76.3698 32.5 74.7898 32.5 73.0298C32.5 71.2698 32.06 69.6698 31.18 68.2298C30.34 66.8298 29.12 65.7098 27.52 64.8698C25.96 64.0298 24.12 63.6098 22 63.6098C19.88 63.6098 18.02 64.0298 16.42 64.8698C14.86 65.7098 13.64 66.8298 12.76 68.2298C11.92 69.6698 11.5 71.2698 11.5 73.0298ZM11.56 125.869L11.56 122.029L0.999995 122.029L0.999995 107.869L43 107.869L43 128.089C43 131.969 42.36 135.349 41.08 138.229C39.8 141.109 37.96 143.329 35.56 144.889C33.16 146.449 30.36 147.229 27.16 147.229C24.16 147.229 21.54 146.549 19.3 145.189C17.06 143.829 15.28 141.869 13.96 139.309L0.999993 148.129L0.999994 133.009L11.56 125.869ZM27.16 132.949C28.72 132.949 29.92 132.469 30.76 131.509C31.64 130.549 32.08 129.109 32.08 127.189L32.08 122.029L22.24 122.029L22.24 127.189C22.24 129.109 22.66 130.549 23.5 131.509C24.38 132.469 25.6 132.949 27.16 132.949ZM32.02 167.11L32.02 154.81L43 154.81L43 193.57L32.02 193.57L32.02 181.27L0.999992 181.27L0.999993 167.11L32.02 167.11ZM32.32 217.408L25.12 217.408L25.12 234.928L14.44 234.928L14.44 217.408L0.99999 217.408L0.999991 203.248L43 203.248L43 237.388L32.32 237.388L32.32 217.408ZM0.039988 269.588C0.0399882 265.068 0.979988 261.008 2.85999 257.408C4.73999 253.808 7.33999 250.988 10.66 248.948C14.02 246.908 17.8 245.888 22 245.888C26.2 245.888 29.96 246.908 33.28 248.948C36.64 250.988 39.26 253.808 41.14 257.408C43.02 261.008 43.96 265.068 43.96 269.588C43.96 274.108 43.02 278.168 41.14 281.768C39.26 285.368 36.64 288.188 33.28 290.228C29.96 292.268 26.2 293.288 22 293.288C17.8 293.288 14.02 292.268 10.66 290.228C7.33999 288.188 4.73999 285.368 2.85999 281.768C0.979988 278.168 0.0399878 274.108 0.039988 269.588ZM11.5 269.588C11.5 271.348 11.92 272.928 12.76 274.328C13.64 275.768 14.86 276.908 16.42 277.748C18.02 278.588 19.88 279.008 22 279.008C24.12 279.008 25.96 278.588 27.52 277.748C29.12 276.908 30.34 275.768 31.18 274.328C32.06 272.928 32.5 271.348 32.5 269.588C32.5 267.828 32.06 266.228 31.18 264.788C30.34 263.388 29.12 262.268 27.52 261.428C25.96 260.588 24.12 260.168 22 260.168C19.88 260.168 18.02 260.588 16.42 261.428C14.86 262.268 13.64 263.388 12.76 264.788C11.92 266.228 11.5 267.828 11.5 269.588ZM43 304.428L43 318.588L11.98 318.588L11.98 337.548L0.999985 337.548L0.999987 304.428L43 304.428ZM43 347.459L43 361.619L0.999984 361.619L0.999985 347.459L43 347.459ZM0.0399825 396.456C0.0399827 391.936 0.979983 387.876 2.85998 384.276C4.73998 380.676 7.33998 377.856 10.66 375.816C14.02 373.776 17.8 372.756 22 372.756C26.2 372.756 29.96 373.776 33.28 375.816C36.64 377.856 39.26 380.676 41.14 384.276C43.02 387.876 43.96 391.936 43.96 396.456C43.96 400.976 43.02 405.036 41.14 408.636C39.26 412.236 36.64 415.056 33.28 417.096C29.96 419.136 26.2 420.156 22 420.156C17.8 420.156 14.02 419.136 10.66 417.096C7.33998 415.056 4.73998 412.236 2.85998 408.636C0.979982 405.036 0.0399823 400.976 0.0399825 396.456ZM11.5 396.456C11.5 398.216 11.92 399.796 12.76 401.196C13.64 402.636 14.86 403.776 16.42 404.616C18.02 405.456 19.88 405.876 22 405.876C24.12 405.876 25.96 405.456 27.52 404.616C29.12 403.776 30.34 402.636 31.18 401.196C32.06 399.796 32.5 398.216 32.5 396.456C32.5 394.696 32.06 393.096 31.18 391.656C30.34 390.256 29.12 389.136 27.52 388.296C25.96 387.456 24.12 387.036 22 387.036C19.88 387.036 18.02 387.456 16.42 388.296C14.86 389.136 13.64 390.256 12.76 391.656C11.92 393.096 11.5 394.696 11.5 396.456Z" fill="white"/>
</svg>
