<svg width="150" height="151" viewBox="0 0 150 151" fill="none" xmlns="http://www.w3.org/2000/svg">
<path d="M61.5625 53.4847C59.25 52.5488 56.75 52.1744 54.1875 52.2368C52.5625 52.2368 51.125 52.2368 49.9375 52.2992C48.6875 52.2368 47.8125 52.2992 47.375 52.3616V73.3266C48.25 73.389 49.0625 73.4514 49.8125 73.4514H53.125C55.5625 73.4514 58 73.077 60.3125 72.3283C62.3125 71.7667 64.0625 70.5812 65.4375 69.0213C66.75 67.4614 67.375 65.34 67.375 62.5945C67.4375 60.6603 66.9375 58.726 65.9375 57.0413C64.8954 55.4212 63.3628 54.1753 61.5625 53.4847ZM123.438 2.81934H26.5625C11.875 2.81934 0 14.6745 0 29.3376V122.301C0 136.964 11.875 148.819 26.5625 148.819H123.438C138.125 148.819 150 136.964 150 122.301V29.3376C150 14.6745 138.125 2.81934 123.438 2.81934ZM77.2438 75.5105C74.75 79.0046 71.25 81.6253 67.1875 83.1228C62.9375 84.6827 58.25 85.2442 53.125 85.2442C51.625 85.2442 50.625 85.2442 50 85.1818C49.375 85.1194 48.5 85.1194 47.3125 85.1194V105.142C47.375 105.579 47.0625 105.96 46.625 106.022H34.5C34 106.022 33.75 105.766 33.75 105.205V41.0056C33.75 40.5688 33.9375 40.3192 34.375 40.3192C35.4375 40.3192 36.4375 40.3192 37.875 40.2568C39.375 40.1944 40.9375 40.1944 42.625 40.132C44.3125 40.0696 46.125 40.0696 48.0625 40.0073C50 39.9449 51.875 39.9449 53.75 39.9449C58.875 39.9449 63.125 40.5688 66.625 41.8791C69.75 42.9399 72.625 44.6869 75 46.9956C77 48.9922 78.5625 51.4257 79.5625 54.1087C80.4937 56.7293 80.9937 59.4123 80.9937 62.2202C81 67.5862 79.75 72.0163 77.2438 75.5105ZM121.563 99.7825C119.813 102.278 117.369 104.206 114.562 105.342C111.5 106.646 107.75 107.326 103.244 107.326C100.375 107.326 97.5563 107.083 94.75 106.521C92.5625 106.141 90.375 105.46 88.375 104.525C87.9375 104.281 87.6188 103.844 87.6813 103.345V92.4884C87.6813 92.3074 87.75 92.0516 87.9375 91.9268C88.1188 91.802 88.3125 91.8644 88.5 91.9892C90.9375 93.4243 93.5 94.4289 96.25 95.0466C98.6187 95.6706 101.119 95.9826 103.625 95.9826C106 95.9826 107.688 95.6643 108.812 95.1028C109.812 94.666 110.5 93.6053 110.5 92.4821C110.5 91.6024 110 90.7975 109 89.9863C108 89.1814 105.944 88.2455 102.881 87.0475C99.6938 85.9243 96.7625 84.4268 94.0063 82.5612C92.0505 81.1628 90.4268 79.3522 89.25 77.2576C88.2566 75.2834 87.7651 73.0955 87.8187 70.8869C87.8187 68.2039 88.5687 65.6457 89.95 63.337C91.5125 60.8412 93.8187 58.8446 96.5062 57.5966C99.4375 56.1054 103.125 55.419 107.562 55.419C110.125 55.419 112.75 55.6062 115.313 55.9806C117.188 56.2302 119 56.7293 120.688 57.4157C120.931 57.4781 121.188 57.7277 121.312 57.9772C121.375 58.2268 121.438 58.4764 121.438 58.726V68.8965C121.438 69.1461 121.312 69.3957 121.125 69.5205C120.562 69.6453 120.25 69.6453 120 69.5205C118.125 68.5221 116.125 67.8358 114 67.399C111.688 66.8998 109.375 66.5879 107 66.5879C105.75 66.5255 104.437 66.7127 103.244 67.0246C102.437 67.2118 101.744 67.6486 101.306 68.2726C100.994 68.7717 100.806 69.3957 100.806 69.9573C100.806 70.5188 101.056 71.0804 101.438 71.5795C102 72.2659 102.744 72.8275 103.562 73.2642C104.994 74.013 106.5 74.6993 107.994 75.3233C111.375 76.4464 114.625 78.0063 117.625 79.8782C119.688 81.1823 121.375 82.9356 122.556 85.057C123.556 87.0412 124.056 89.2376 123.994 91.4776C124.063 94.4164 123.188 97.3428 121.563 99.7825Z" fill="white" fill-opacity="0.5"/>
</svg>
