<svg width="150" height="150" viewBox="0 0 150 150" fill="none" xmlns="http://www.w3.org/2000/svg">
<path d="M75.0042 88.1073C82.3909 88.1073 88.379 82.1192 88.379 74.7325C88.379 67.3458 82.3909 61.3577 75.0042 61.3577C67.6175 61.3577 61.6294 67.3458 61.6294 74.7325C61.6294 82.1192 67.6175 88.1073 75.0042 88.1073Z" fill="white" fill-opacity="0.5"/>
<path d="M37.5543 101.325L34.5946 100.568C12.6105 95.016 0 85.5749 0 74.7028C0 63.8231 12.618 54.3896 34.5946 48.8373L37.5543 48.0881L38.386 51.0178C40.608 58.6882 43.4548 66.1637 46.8979 73.369L47.5348 74.7028L46.8979 76.0365C43.4512 83.2521 40.5964 90.73 38.386 98.4028L37.5543 101.325ZM33.2309 55.6559C16.5293 60.3614 6.27154 67.5396 6.27154 74.7028C6.27154 81.851 16.5218 89.0367 33.2309 93.7347C35.2765 87.2309 37.7491 80.8694 40.6114 74.7028C37.7284 68.5259 35.2627 62.1626 33.2309 55.6559ZM112.446 101.325L111.621 98.3878C109.394 90.7158 106.544 83.2382 103.102 76.029L102.465 74.7028L103.102 73.3615C106.549 66.1609 109.389 58.6755 111.621 51.0028L112.446 48.0806L115.405 48.8299C137.397 54.3821 150 63.8156 150 74.7028C150 85.5824 137.389 95.016 115.405 100.568L112.446 101.325ZM109.374 74.7028C112.371 81.1916 114.866 87.5755 116.769 93.7347C133.478 89.0367 143.736 81.851 143.736 74.7028C143.736 67.5396 133.486 60.3689 116.769 55.6559C114.726 62.1606 112.255 68.5234 109.374 74.7028Z" fill="white" fill-opacity="0.5"/>
<path d="M33.1862 55.6257L32.362 52.7035C26.1729 30.9142 28.0461 15.3065 37.5096 9.86671C46.7633 4.5093 61.6517 10.8408 77.2443 26.8381L79.3723 29.026L77.2443 31.2064C71.7062 36.9661 66.6444 43.1656 62.1087 49.7438L61.262 50.9577L59.7934 51.0776C51.8179 51.704 43.9067 52.9795 36.1384 54.8914L33.1862 55.6257ZM45.0399 14.1976C43.3615 14.1976 41.8779 14.5647 40.6266 15.2841C34.4225 18.8582 33.3286 31.3038 37.5995 48.1029C44.2757 46.6268 51.0118 45.5703 57.8003 44.9784C61.7305 39.4041 66.0179 34.0904 70.6356 29.071C60.8724 19.5775 51.6562 14.1976 45.0399 14.1976ZM104.961 141.457C96.059 141.457 84.6248 134.743 72.7561 122.56L70.6356 120.379L72.7561 118.206C78.2952 112.437 83.3593 106.231 87.8992 99.6464L88.7384 98.4475L90.1921 98.3052C98.1704 97.6899 106.085 96.4193 113.855 94.5063L116.814 93.757L117.646 96.6867C123.805 118.461 121.939 134.091 112.491 139.531C110.197 140.831 107.597 141.496 104.961 141.457ZM79.3723 120.327C89.1281 129.82 98.3518 135.208 104.961 135.208C106.646 135.208 108.13 134.833 109.374 134.121C115.585 130.54 116.687 118.071 112.401 101.272C105.732 102.756 98.9887 103.82 92.1852 104.412C88.2717 109.995 83.9913 115.312 79.3723 120.327Z" fill="white" fill-opacity="0.5"/>
<path d="M116.814 55.6254L113.854 54.8836C106.085 52.9656 98.1706 51.6901 90.1918 51.0697L88.7382 50.9423L87.899 49.7285C83.3654 43.1466 78.3008 36.9468 72.7559 31.1911L70.6354 29.0107L72.7559 26.8377C88.3411 10.8479 103.222 4.51643 112.491 9.86635C121.947 15.3137 123.827 30.9213 117.646 52.7032L116.814 55.6254ZM92.1849 44.978C99.3331 45.6149 106.107 46.6864 112.401 48.1025C116.679 31.3035 115.585 18.8578 109.374 15.2762C103.199 11.7021 91.578 17.1719 79.3721 29.0706C83.9877 34.0908 88.2736 39.3958 92.1849 44.978ZM45.0397 141.456C42.4032 141.494 39.8041 140.829 37.5094 139.531C28.0458 134.091 26.1726 118.468 32.3543 96.6864L33.1635 93.7567L36.1232 94.5059C43.3463 96.3267 51.3038 97.608 59.7857 98.3048L61.2393 98.4472L62.086 99.6461C66.6117 106.225 71.6769 112.436 77.2216 118.206L79.3496 120.379L77.2216 122.559C65.3604 134.75 53.9263 141.456 45.0397 141.456ZM37.5993 101.28C33.3283 118.079 34.4223 130.547 40.6264 134.128C46.808 137.65 58.392 132.218 70.6354 120.326C66.0194 115.305 61.7321 109.992 57.8001 104.419C51.0047 103.818 44.2565 102.769 37.5993 101.28Z" fill="white" fill-opacity="0.5"/>
<path d="M75.0032 105.214C69.8556 105.214 64.5731 104.996 59.2681 104.554L57.7995 104.427L56.9528 103.213C53.9613 98.9113 51.1466 94.4893 48.5158 89.9581C45.9045 85.4146 43.4773 80.7677 41.2402 76.0288L40.6108 74.7025L41.2402 73.3613C43.4806 68.6258 45.9008 63.9802 48.5158 59.4396C51.1159 54.9738 53.9557 50.508 56.9528 46.1772L57.7995 44.9783L59.2681 44.8434C69.7348 43.9667 80.2565 43.9667 90.7232 44.8434L92.1768 44.9858L93.0235 46.1846C99.0163 54.7921 104.28 63.8851 108.759 73.3688L109.381 74.71L108.759 76.0363C104.292 85.5265 99.0281 94.6205 93.0235 103.22L92.1768 104.434L90.7232 104.562C85.4333 104.989 80.1433 105.214 75.0032 105.214ZM61.2612 98.44C70.5149 99.1368 79.4914 99.1368 88.7376 98.44C93.8994 90.8813 98.4879 82.9466 102.465 74.7025C98.5019 66.4511 93.9128 58.5154 88.7376 50.9651C79.5924 50.2608 70.4065 50.2608 61.2612 50.9651C56.0817 58.5126 51.4924 66.4487 47.5343 74.7025C51.5196 82.942 56.1077 90.8761 61.2612 98.44Z" fill="white" fill-opacity="0.5"/>
</svg>
