<svg width="150" height="150" viewBox="0 0 150 150" fill="none" xmlns="http://www.w3.org/2000/svg">
<path d="M103.953 103.272C106.629 103.01 109.101 101.723 110.849 99.6783C112.596 97.6341 113.485 94.9924 113.327 92.3075C113.203 89.55 112.027 86.9449 110.04 85.0288C108.053 83.1126 105.407 82.0314 102.647 82.0078H102.268C99.436 82.1089 96.7603 83.3293 94.8278 85.4013C92.8953 87.4732 91.8639 90.2273 91.96 93.059C92.1498 96.0572 93.376 98.4936 95.053 100.266C88.5109 112.994 78.678 122.368 63.7743 130.231C53.7594 135.476 43.1749 137.446 32.8832 136.038C24.2685 134.827 17.5365 130.975 13.3992 124.797C7.22893 115.422 6.65936 105.321 11.8092 95.2107C14.9501 89.1792 19.4381 83.9523 24.9251 79.9352C23.796 76.7987 22.9204 73.5766 22.3066 70.3C-5.42812 90.1558 -2.5961 117.305 5.82083 130.136C12.1019 139.502 24.9251 145.491 38.9665 145.491C42.7161 145.491 46.6556 145.214 50.4923 144.273C74.8334 139.59 93.281 124.986 103.865 103.454L103.953 103.272Z" fill="white" fill-opacity="0.5"/>
<path d="M137.382 79.8556C122.874 62.816 101.523 53.4577 77.1744 53.4577H73.9864C72.4043 49.9929 68.7575 47.8333 64.6281 47.8333H64.3433C58.4578 47.8333 53.8617 52.8961 54.0516 58.7895C54.2335 64.4061 59.0116 69.0892 64.731 69.0892H65.1977C67.2222 69.0126 69.1817 68.354 70.8414 67.1923C72.5012 66.0306 73.7909 64.415 74.556 62.5392H78.0288C92.4578 62.5392 106.12 66.7476 118.579 74.9905C128.119 81.2558 134.97 89.4987 138.806 99.3316C142.168 107.393 141.986 115.256 138.529 121.822C133.19 132.121 124.195 137.548 112.314 137.548C104.822 137.548 97.5127 135.206 93.7631 133.521C91.5244 135.38 87.7668 138.474 85.0455 140.348C93.2884 144.09 101.626 146.25 109.671 146.25C127.937 146.25 141.496 135.95 146.662 126.022C152.27 114.773 151.811 95.8588 137.477 79.6736L137.382 79.8556Z" fill="white" fill-opacity="0.5"/>
<path d="M40.5552 106.641C40.7371 112.257 45.5072 116.94 51.2346 116.94H51.6143C53.0216 116.908 54.4083 116.595 55.6926 116.019C56.977 115.442 58.1331 114.615 59.0929 113.585C60.0526 112.555 60.7967 111.344 61.2812 110.022C61.7656 108.701 61.9808 107.295 61.9139 105.889C61.9139 100.273 57.041 95.5975 51.3295 95.5975H50.9498C50.5701 95.5975 50.0163 95.5975 49.5417 95.7715C41.7734 82.6636 38.4905 68.6063 39.7166 53.4574C40.4602 42.0265 44.202 32.0987 50.9498 23.8557C56.5663 16.8311 67.1508 13.3662 74.3653 13.1764C94.5849 12.7966 103.018 38 103.666 48.0149L113.033 50.8153C110.873 20.1061 91.7767 4 73.511 4C56.3765 4 40.5552 16.4514 34.1871 34.725C25.4695 59.0661 31.1889 82.4737 41.8683 101.206C40.9349 102.424 40.3732 104.576 40.5552 106.641Z" fill="white" fill-opacity="0.5"/>
</svg>
