<svg width="151" height="150" viewBox="0 0 151 150" fill="none" xmlns="http://www.w3.org/2000/svg">
<path d="M71.5577 103.673C71.4874 103.813 71.4171 103.925 71.5577 103.673V103.673ZM129.939 83.3751C125.224 83.3751 120.575 84.4483 116.347 86.5248C114.964 83.7484 113.535 81.3219 113.3 79.5021C113.019 77.3789 112.715 76.119 113.043 73.5992C113.371 71.0794 114.847 67.5097 114.824 67.2531C114.8 66.9964 114.496 65.7132 111.473 65.6899C108.449 65.6665 105.848 66.2732 105.543 67.0664C105.009 68.5158 104.593 70.0062 104.301 71.5227C103.762 74.2525 98.2598 84.005 95.1429 89.0913C94.1118 87.1081 93.2447 85.3583 93.0572 83.9584C92.776 81.8352 92.4713 80.5753 92.7994 78.0555C93.1275 75.5357 94.6039 71.966 94.5805 71.7094C94.557 71.4527 94.2524 70.1695 91.2339 70.1462C88.2155 70.1228 85.6095 70.7295 85.3048 71.5227C85.0002 72.316 84.6721 74.1825 84.0628 75.979C83.4534 77.7756 76.1182 94.0142 74.2012 98.2372C73.2169 100.384 72.3733 102.11 71.764 103.277C71.6702 103.463 71.5999 103.58 71.553 103.673C71.6234 103.557 71.6702 103.44 71.6702 103.487C71.1546 104.49 70.85 105.05 70.85 105.05V105.073C70.4516 105.82 70.0063 106.497 69.7954 106.497C69.6548 106.497 69.3501 104.537 69.8657 101.854C70.9672 96.2074 73.5685 87.4348 73.545 87.1315C73.5216 86.9681 74.0372 85.4516 71.8343 84.635C69.7017 83.8651 68.9283 85.1483 68.7408 85.1483C68.5533 85.1483 68.4127 85.6149 68.4127 85.6149C68.4127 85.6149 70.7797 75.7224 63.8663 75.7224C59.5542 75.7224 53.5548 80.4353 50.6067 84.705C48.7553 85.7082 44.7479 87.8781 40.5295 90.1879L35.6784 92.8477C35.5613 92.731 35.4675 92.6143 35.3504 92.4977C26.9606 83.5851 11.4746 77.2856 12.1308 65.3166C12.3651 60.9536 13.8884 49.4979 41.9122 35.5923C64.8787 24.2066 83.2378 27.333 86.4016 34.2858C90.948 44.2016 76.5822 62.6568 52.7346 65.3166C43.6417 66.3198 38.8656 62.8201 37.6704 61.5135C36.4284 60.137 36.2409 60.067 35.7722 60.3236C34.9988 60.7436 35.491 61.9568 35.7722 62.6801C36.4752 64.5233 39.4046 67.7897 44.3963 69.4229C48.7787 70.8461 59.437 71.6394 72.3217 66.6698C86.8 61.1169 98.0723 45.6482 94.7633 32.6992C91.398 19.5403 69.4814 15.224 48.76 22.5501C36.4096 26.913 23.0563 33.7725 13.4525 42.7084C2.03957 53.3475 0.216312 62.6101 0.966238 66.4831C3.63785 80.2253 22.6625 89.1846 30.2743 95.8108L29.2197 96.394C25.3998 98.2839 10.8981 105.843 7.26562 113.823C3.16446 122.875 7.94524 129.361 11.0809 130.248C20.8768 132.954 30.9024 128.078 36.2924 120.075C41.6825 112.073 41.0264 101.62 38.5422 96.8607C38.5188 96.7907 38.4719 96.744 38.4485 96.674C41.2606 95.0158 44.0965 93.3979 46.9555 91.8211C46.0181 94.3409 45.3384 97.374 44.9869 101.76C44.5651 106.893 46.6977 113.543 49.463 116.156C50.6817 117.299 52.1534 117.322 53.072 117.322C56.3061 117.322 57.7591 114.663 59.3761 111.489C61.3681 107.616 63.1258 103.113 63.1258 103.113C63.1258 103.113 60.9228 115.292 66.9457 115.292C69.1486 115.292 71.3515 112.469 72.3358 111.023V111.046C72.3358 111.046 72.3827 110.953 72.4998 110.766C72.7342 110.416 72.8514 110.206 72.8514 110.206V110.136C73.7419 108.62 75.687 105.143 78.6164 99.4038C82.4129 91.9844 86.0407 82.7218 86.0407 82.7218C86.3922 84.7563 86.8797 86.7675 87.4937 88.7413C88.1498 90.9578 89.5325 93.3843 90.634 95.7408C89.7434 96.954 89.2044 97.6539 89.2044 97.6539C89.2044 97.6726 89.2138 97.6866 89.2279 97.7006C88.5248 98.6339 87.728 99.6371 86.9078 100.617C83.9128 104.163 80.3459 108.223 79.8772 109.39C79.3148 110.766 79.4554 111.793 80.5334 112.586C81.3302 113.193 82.7363 113.286 84.2127 113.169C86.9078 112.983 88.806 112.329 89.72 111.909C91.4058 111.308 92.9991 110.476 94.4539 109.436C97.3833 107.29 99.1644 104.21 99.0003 100.15C98.9066 97.9106 98.1801 95.6708 97.2896 93.5709C97.5474 93.1976 97.8286 92.801 98.0864 92.4044C101.136 87.8741 103.884 83.1494 106.312 78.2608C106.664 80.2953 107.146 82.3065 107.765 84.2804C108.328 86.1702 109.429 88.2467 110.437 90.2765C106.078 93.7996 103.383 97.8826 102.45 100.566C100.716 105.535 102.075 107.775 104.629 108.288C105.778 108.522 107.418 107.985 108.637 107.472C110.446 106.87 112.152 105.997 113.694 104.882C116.624 102.736 119.459 99.7258 119.267 95.6428C119.197 93.7996 118.681 91.9564 118.002 90.1832C121.681 88.6433 126.462 87.8034 132.555 88.5033C145.604 90.0199 148.158 98.1392 147.666 101.522C147.174 104.905 144.432 106.795 143.518 107.355C142.604 107.915 142.323 108.125 142.393 108.545C142.51 109.152 142.932 109.128 143.705 108.988C144.783 108.802 150.548 106.235 150.806 99.9591C151.181 92.0264 143.518 83.3004 129.949 83.3704L129.939 83.3751ZM29.3603 117.136C25.0482 121.825 19.0067 123.598 16.4053 122.105C13.6166 120.491 14.718 113.589 20.0331 108.592C23.2672 105.559 27.4386 102.759 30.204 101.032C30.8367 100.659 31.7507 100.099 32.8756 99.4225C32.967 99.3641 33.0608 99.3096 33.1568 99.2591C33.3677 99.1192 33.6021 99.0025 33.8364 98.8625C35.7769 105.955 33.9067 112.208 29.3603 117.131V117.136ZM60.8478 95.8108C59.348 99.4738 56.1889 108.806 54.2626 108.316C52.6221 107.896 51.6144 100.78 53.9345 93.7809C55.1062 90.2579 57.5904 86.0582 59.0668 84.425C61.4337 81.7886 64.035 80.9486 64.6443 81.9985C65.4646 83.3751 61.7853 93.5243 60.8478 95.8108ZM86.8609 108.176C86.2282 108.503 85.6423 108.713 85.3611 108.55C85.1501 108.433 85.6188 107.99 85.6188 107.99C85.6188 107.99 88.8763 104.513 90.1653 102.927C90.9152 101.994 91.7823 100.897 92.7197 99.6838C92.7197 99.8004 92.7431 99.9171 92.7431 100.057C92.715 104.233 88.6842 107.057 86.8562 108.176H86.8609ZM106.921 103.627C106.453 103.3 106.523 102.204 108.093 98.7972C108.703 97.4673 110.109 95.2275 112.546 93.081C112.822 93.8929 112.972 94.7422 112.991 95.6008C112.968 100.85 109.195 102.81 106.921 103.627Z" fill="white" fill-opacity="0.5"/>
</svg>
