<svg width="151" height="150" viewBox="0 0 151 150" fill="none" xmlns="http://www.w3.org/2000/svg">
<g clip-path="url(#clip0)">
<path d="M38.9326 72.0246C38.3545 79.4021 44.7495 84.8361 49.1137 84.8361C53.4841 84.6296 70.5049 70.0922 70.5049 70.0922C78.5102 59.831 78.5449 55.2683 78.5449 51.682C77.8772 35.8491 49.4161 59.9643 38.9326 72.0246ZM109.338 65.8963C113.201 57.6094 108.004 48.4052 96.698 56.4896C87.714 62.277 76.083 74.1826 70.5165 78.8432C67.9346 84.1286 74.4795 98.6335 84.8511 90.975C97.1102 81.9481 106.062 73.4599 109.338 65.8963ZM119.86 15.7658L122.35 0H149.819V28.7795L139.752 28.9014L127.63 70.5129C128.385 85.1988 121.037 85.4379 120.098 92.1765C117.739 109.113 99.0516 122.971 91.9068 122.971C87.1416 122.831 83.6581 117.296 82.488 112.472C95.9236 97.4106 113.991 85.5744 113.991 85.5744C115.119 77.6534 112.64 75.1315 120.979 68.3818L128.936 25.9781C122.14 21.4298 118.969 21.5004 119.86 15.7658ZM66.2427 85.9904C73.2097 100.218 83.2763 100.589 98.8836 82.4751C99.2545 84.1497 99.6606 85.9043 98.9154 90.1172C67.166 118.898 37.2624 146.909 28.1602 150H1.81934V142.84C6.10324 136.819 41.2613 107.428 66.2427 85.9904ZM113.166 113.538C111.736 125.854 100.658 136.63 85.8544 150H38.9384L78.4903 116.234C85.3179 131.982 97.4453 129.701 113.166 113.538H113.166ZM57.6836 85.585L1.81934 133.844V102.534L34.6944 75.4102C36.4531 85.5061 47.2267 94.3963 57.6836 85.5855V85.585Z" fill="white" fill-opacity="0.5"/>
</g>
<defs>
<clipPath id="clip0">
<rect width="148" height="150" fill="white" transform="translate(1.81934)"/>
</clipPath>
</defs>
</svg>
