<svg width="151" height="151" viewBox="0 0 151 151" fill="none" xmlns="http://www.w3.org/2000/svg">
<path d="M75.0004 32C63.0002 32 55.4994 38.0002 52.4998 50.0006C57.0001 43.9995 62.2503 41.7498 68.2504 43.2505C71.6731 44.1059 74.1203 46.5898 76.8288 49.3392C81.2406 53.8165 86.3469 59.0004 97.5002 59.0004C109.5 59.0004 117 53.0002 120 40.9999C115.501 47.0009 110.25 49.2507 104.25 47.75C100.827 46.8945 98.3804 44.4107 95.6718 41.6613C91.2592 37.1839 86.1537 32 75.0004 32ZM52.4998 59.0004C40.5004 59.0004 32.9996 65.0006 30 77.001C34.5003 71 39.7497 68.7502 45.7498 70.2509C49.1733 71.1064 51.6205 73.5902 54.3282 76.3388C58.7408 80.8178 63.8471 86 75.0004 86C86.9998 86 94.4997 80.0007 97.5002 68.0003C92.9999 74.0013 87.7497 76.2511 81.7504 74.7504C78.3269 73.8949 75.8797 71.4111 73.1712 68.6617C68.7594 64.1843 63.6531 59.0004 52.4998 59.0004Z" fill="#9E9E9E"/>
<path d="M9.58633 105.948H5.91754V113.096C5.91754 115.003 7.16022 114.973 9.58633 114.854V117.743C4.67486 118.338 2.72197 116.969 2.72197 113.096V105.948H0V102.85H2.72197V98.8498L5.91754 97.8971V102.85H9.58633V105.948V105.948ZM23.5719 102.85H26.7675V117.743H23.5719V115.598C22.4478 117.177 20.7021 118.13 18.3944 118.13C14.3702 118.13 11.0266 114.705 11.0266 110.297C11.0266 105.859 14.3701 102.463 18.394 102.463C20.7021 102.463 22.4478 103.416 23.5719 104.965V102.85ZM18.8971 115.062C21.5598 115.062 23.5719 113.067 23.5719 110.297C23.5719 107.526 21.5598 105.531 18.8971 105.531C16.2344 105.531 14.2222 107.526 14.2222 110.297C14.2222 113.067 16.2344 115.062 18.8971 115.062ZM32.0933 100.616C30.9688 100.616 30.0518 99.6636 30.0518 98.5616C30.0528 98.0168 30.2683 97.4947 30.6509 97.1095C31.0335 96.7243 31.5522 96.5074 32.0933 96.5064C32.6345 96.5074 33.1532 96.7243 33.5358 97.1095C33.9184 97.4947 34.1339 98.0168 34.1349 98.5616C34.1349 99.6636 33.2175 100.616 32.0933 100.616ZM30.4956 117.743V102.85H33.6907V117.743H30.4956ZM37.3894 117.743V96H40.5849V117.743H37.3894ZM61.326 102.85H64.6989L60.0534 117.743H56.9171L53.84 107.705L50.7336 117.743H47.5972L42.9518 102.85H46.3247L49.195 113.126L52.3015 102.85H55.3492L58.4262 113.126L61.326 102.85ZM68.6635 100.617C67.5394 100.617 66.622 99.6636 66.622 98.5616C66.623 98.0168 66.8384 97.4947 67.2211 97.1095C67.6037 96.7243 68.1224 96.5074 68.6635 96.5064C69.2047 96.5074 69.7233 96.7243 70.106 97.1095C70.4886 97.4947 70.704 98.0168 70.7051 98.5616C70.7051 99.6636 69.7877 100.616 68.6635 100.616V100.617ZM67.0657 117.743V102.85H70.2613V117.743H67.0657ZM81.7413 102.463C85.055 102.463 87.4222 104.727 87.4222 108.599V117.743H84.2266V108.926C84.2266 106.663 82.9247 105.472 80.913 105.472C78.8121 105.472 77.1551 106.722 77.1551 109.761V117.743H73.9595V102.85H77.1551V104.757C78.1318 103.208 79.7291 102.463 81.7413 102.463ZM102.571 96.8935H105.767V117.743H102.571V115.598C101.447 117.177 99.7011 118.13 97.3935 118.13C93.3692 118.13 90.0257 114.705 90.0257 110.297C90.0257 105.859 93.3692 102.463 97.3931 102.463C99.7011 102.463 101.447 103.416 102.571 104.965V96.8935ZM97.8961 115.062C100.559 115.062 102.571 113.067 102.571 110.297C102.571 107.526 100.559 105.531 97.8961 105.531C95.2334 105.531 93.2213 107.526 93.2213 110.297C93.2213 113.067 95.2334 115.062 97.8961 115.062ZM116.477 118.13C112.009 118.13 108.666 114.705 108.666 110.297C108.666 105.859 112.009 102.463 116.477 102.463C119.377 102.463 121.892 103.982 123.075 106.306L120.324 107.914C119.673 106.514 118.223 105.62 116.448 105.62C113.844 105.62 111.861 107.616 111.861 110.297C111.861 112.977 113.844 114.973 116.448 114.973C118.223 114.973 119.673 114.05 120.383 112.679L123.135 114.258C121.892 116.611 119.377 118.13 116.477 118.13ZM128.401 106.961C128.401 109.671 136.36 108.033 136.36 113.543C136.36 116.521 133.786 118.13 130.59 118.13C127.632 118.13 125.502 116.79 124.555 114.645L127.306 113.037C127.78 114.377 128.963 115.181 130.59 115.181C132.011 115.181 133.106 114.705 133.106 113.514C133.106 110.863 125.146 112.352 125.146 107.02C125.146 104.22 127.543 102.463 130.561 102.463C132.987 102.463 134.999 103.595 136.035 105.561L133.343 107.08C132.81 105.918 131.774 105.382 130.561 105.382C129.407 105.382 128.401 105.888 128.401 106.961ZM142.041 106.961C142.041 109.671 150 108.033 150 113.543C150 116.521 147.426 118.13 144.23 118.13C141.272 118.13 139.141 116.79 138.194 114.645L140.946 113.037C141.419 114.377 142.603 115.181 144.23 115.181C145.65 115.181 146.745 114.705 146.745 113.514C146.745 110.863 138.786 112.352 138.786 107.02C138.786 104.22 141.183 102.463 144.201 102.463C146.627 102.463 148.639 103.595 149.675 105.561L146.982 107.08C146.449 105.918 145.414 105.382 144.201 105.382C143.047 105.382 142.041 105.888 142.041 106.961Z" fill="#9E9E9E"/>
</svg>
