<svg width="150" height="150" viewBox="0 0 150 150" fill="none" xmlns="http://www.w3.org/2000/svg">
<path d="M5 75V145H145V5H5V75ZM117.814 69.4175C121.17 70.2077 124.22 71.9663 126.586 74.475C127.863 75.84 129.775 78.3469 129.937 78.9638C129.981 79.1475 123.899 83.225 120.207 85.5044C120.071 85.5962 119.524 85.0275 118.929 84.135C117.131 81.5144 115.237 80.3769 112.345 80.1712C108.106 79.8956 105.371 82.1094 105.393 85.8238C105.371 86.7326 105.574 87.6329 105.984 88.4444C106.92 90.3825 108.674 91.5419 114.095 93.8913C124.123 98.1963 128.406 101.044 131.07 105.078C134.054 109.589 134.714 116.79 132.711 122.167C130.479 127.977 124.963 131.941 117.214 133.24C114.821 133.673 109.125 133.603 106.548 133.126C100.922 132.124 95.5887 129.342 92.3075 125.697C91.0081 124.284 88.5012 120.57 88.6631 120.321C88.7331 120.229 89.3019 119.866 89.9406 119.498L95.1381 116.488L99.1719 114.143L100.016 115.394C101.202 117.192 103.774 119.656 105.327 120.474C109.794 122.845 115.924 122.504 118.956 119.791C120.185 118.768 120.872 117.193 120.78 115.6C120.78 113.981 120.574 113.255 119.73 112.043C118.636 110.494 116.427 109.173 110.114 106.439C102.891 103.315 99.7669 101.403 96.945 98.3275C95.1686 96.3031 93.8548 93.9158 93.095 91.3319C92.57 89.35 92.4344 84.38 92.8456 82.3981C94.3288 75.4025 99.6138 70.5506 107.2 69.1156C109.663 68.6387 115.403 68.8181 117.818 69.4131L117.814 69.4175ZM84.9575 75.2756L85.0012 80.9938H66.7706V132.789H53.8731V80.9938H35.6688V75.3894C35.6688 72.2656 35.7388 69.6712 35.8263 69.6012C35.8963 69.5094 46.9694 69.4656 60.4138 69.4875L84.8875 69.5575L84.9575 75.2756Z" fill="#9E9E9E"/>
</svg>
